<svg width="180" height="100" viewBox="0 0 180 100" fill="none" xmlns="http://www.w3.org/2000/svg">
<path d="M111.435 81.543L159.602 81.7273" stroke="#CFD39F"/>
<path d="M8.14096 66.6943C8.14096 68.7034 6.57871 70.4041 4.57049 70.4041C2.56226 70.4041 1 68.7034 1 66.6943C1 64.6851 2.56226 62.9844 4.57049 62.9844C6.57871 62.9844 8.14096 64.6851 8.14096 66.6943Z" stroke="#CFD39F"/>
<path d="M179 66.6943C179 68.7034 177.438 70.4041 175.429 70.4041C173.421 70.4041 171.859 68.7034 171.859 66.6943C171.859 64.6851 173.421 62.9844 175.429 62.9844C177.438 62.9844 179 64.6851 179 66.6943Z" fill="white" style="mix-blend-mode:hue"/>
<path d="M179 66.6943C179 68.7034 177.438 70.4041 175.429 70.4041C173.421 70.4041 171.859 68.7034 171.859 66.6943C171.859 64.6851 173.421 62.9844 175.429 62.9844C177.438 62.9844 179 64.6851 179 66.6943Z" stroke="#CFD39F"/>
<path d="M20.5502 81.7283L68.7177 81.543" stroke="#CFD39F"/>
<path d="M38.4881 94.4607C38.1318 94.5123 37.8101 94.6289 37.523 94.8113C37.2359 94.9896 36.9902 95.2226 36.7862 95.5114C36.5855 95.7961 36.4298 96.1295 36.3191 96.5094C36.2119 96.8894 36.1583 97.3048 36.1583 97.7557C36.1583 98.4123 36.2776 98.8996 36.5163 99.2158C36.755 99.5329 37.1199 99.691 37.6112 99.691C37.9398 99.691 38.2684 99.6261 38.5971 99.4954C38.9292 99.3647 39.2491 99.1763 39.557 98.9311C39.8649 98.6818 40.1572 98.3788 40.4339 98.0232C40.7141 97.6625 40.9667 97.2531 41.1915 96.7941L41.4614 96.248L41.5962 96.3605L41.3316 96.9066C41.0825 97.4213 40.8092 97.8702 40.5118 98.2542C40.2178 98.6382 39.9064 98.9594 39.5778 99.2158C39.2526 99.4731 38.9118 99.6657 38.5555 99.7923C38.2027 99.923 37.8447 99.9879 37.4814 99.9879C37.1493 99.9879 36.8519 99.9321 36.5889 99.8217C36.326 99.7112 36.1012 99.5522 35.9144 99.3465C35.7311 99.1367 35.5892 98.8855 35.4889 98.5926C35.392 98.2958 35.3436 97.9655 35.3436 97.6017C35.3436 97.162 35.4145 96.7567 35.5564 96.3838C35.6981 96.0119 35.8954 95.6877 36.1479 95.4111C36.4039 95.1294 36.71 94.9024 37.0664 94.7282C37.4226 94.5498 37.8153 94.4394 38.2442 94.3958C37.9848 94.2297 37.7859 94.0037 37.6475 93.719C37.5091 93.4333 37.4399 93.1111 37.4399 92.7514C37.4399 92.4028 37.5039 92.0745 37.6319 91.7655C37.7599 91.4564 37.9329 91.1879 38.1508 90.9579C38.3722 90.7279 38.6299 90.5486 38.9239 90.4179C39.2179 90.2831 39.5311 90.2162 39.8632 90.2162C40.0741 90.2162 40.2679 90.2497 40.4443 90.3166C40.6241 90.3844 40.7781 90.4787 40.9061 90.6013C41.0375 90.7249 41.1379 90.8708 41.207 91.041C41.2797 91.2072 41.316 91.3916 41.316 91.5932C41.316 91.9732 41.2123 92.3177 41.0047 92.6267C40.8006 92.9307 40.5239 93.1982 40.1745 93.4282L40.1018 93.2499C40.2367 93.1627 40.3579 93.0573 40.4651 92.9347C40.5722 92.8121 40.6622 92.6774 40.7348 92.5315C40.811 92.3805 40.8698 92.2224 40.9113 92.0563C40.9528 91.886 40.9736 91.7138 40.9736 91.5395C40.9736 91.1839 40.8905 90.9123 40.7245 90.7269C40.5619 90.5405 40.3267 90.4473 40.0188 90.4473C39.749 90.4473 39.493 90.5182 39.2509 90.661C39.0121 90.7999 38.8029 90.9893 38.623 91.2315C38.4431 91.4686 38.2995 91.7472 38.1923 92.0684C38.0886 92.3846 38.0367 92.721 38.0367 93.0776C38.0367 93.3866 38.0764 93.6531 38.156 93.8791C38.2356 94.101 38.348 94.259 38.4933 94.3543C38.5105 94.3462 38.5383 94.3381 38.5763 94.33C38.6143 94.3219 38.6506 94.3178 38.6853 94.3178C38.7822 94.3178 38.8306 94.3462 38.8306 94.4009C38.8306 94.4647 38.7804 94.4961 38.68 94.4961C38.6455 94.4961 38.6109 94.4921 38.5763 94.484C38.5417 94.4769 38.5123 94.4688 38.4881 94.4607ZM41.4458 96.3007C41.5703 95.8741 41.7191 95.4861 41.892 95.1375C42.065 94.7849 42.2517 94.4728 42.4524 94.1993C42.6565 93.9267 42.8692 93.6906 43.0906 93.493C43.3155 93.2955 43.5386 93.1333 43.76 93.0067C43.9849 92.876 44.2045 92.7787 44.419 92.7149C44.6369 92.6521 44.8411 92.6206 45.0313 92.6206C45.2285 92.6206 45.3928 92.6561 45.5242 92.727C45.6557 92.7949 45.7612 92.8912 45.8408 93.0178C45.9238 93.1404 45.9826 93.2914 46.0172 93.4697C46.0517 93.643 46.0691 93.8375 46.0691 94.0513L47.4804 89.6042H48.2484L45.9341 96.8894C45.8857 97.0434 45.8373 97.2015 45.7889 97.3636C45.7404 97.5257 45.6972 97.6848 45.6592 97.8388C45.6245 97.9928 45.5951 98.1438 45.571 98.2897C45.5501 98.4325 45.5398 98.5653 45.5398 98.6879C45.5398 98.9604 45.602 99.1783 45.7266 99.3404C45.8546 99.5035 46.0517 99.5846 46.3181 99.5846C46.5499 99.5846 46.7748 99.5289 46.9926 99.4184C47.2106 99.3029 47.4251 99.1307 47.6361 98.9017C47.8506 98.6676 48.0651 98.3768 48.2796 98.0293C48.494 97.6767 48.7154 97.2653 48.9437 96.7941L49.2083 96.248L49.3484 96.3605L49.0786 96.9066C48.8261 97.4173 48.5839 97.8611 48.3522 98.237C48.1239 98.6089 47.8956 98.9169 47.6673 99.1631C47.439 99.4042 47.2055 99.5846 46.9667 99.7031C46.728 99.8217 46.4738 99.8815 46.204 99.8815C45.9929 99.8815 45.8062 99.844 45.6436 99.768C45.4844 99.6971 45.3496 99.5937 45.2389 99.46C45.1316 99.3252 45.0503 99.1631 44.995 98.9726C44.9396 98.7831 44.9119 98.5714 44.9119 98.3373C44.9119 98.1833 44.924 98.0171 44.9483 97.8388C44.9725 97.6564 45.0088 97.469 45.0572 97.2744C44.6041 98.1458 44.1561 98.7983 43.7133 99.234C43.2705 99.6657 42.8208 99.8815 42.3642 99.8815C42.1497 99.8815 41.9664 99.8379 41.8142 99.7508C41.6654 99.6596 41.5426 99.5349 41.4458 99.3769C41.3489 99.2138 41.278 99.0263 41.233 98.8125C41.1881 98.5947 41.1656 98.3576 41.1656 98.1002C41.1656 97.8226 41.1898 97.5318 41.2382 97.2278C41.2866 96.9188 41.3558 96.6097 41.4458 96.3007ZM42.551 99.5846C42.7378 99.5846 42.928 99.5289 43.1218 99.4184C43.3155 99.3029 43.5075 99.1489 43.6977 98.9554C43.8915 98.7568 44.0782 98.5278 44.2582 98.2664C44.438 98.0009 44.6075 97.7202 44.7667 97.4234C44.9293 97.1224 45.078 96.8134 45.2129 96.4973C45.3478 96.1801 45.4637 95.8701 45.5606 95.5651C45.6608 95.2561 45.737 94.9632 45.7889 94.6866C45.8442 94.4049 45.8719 94.1537 45.8719 93.9328C45.8719 93.7301 45.8494 93.5619 45.8045 93.4282C45.7629 93.2894 45.7058 93.1779 45.6332 93.0948C45.564 93.0077 45.4827 92.9469 45.3893 92.9114C45.2993 92.876 45.206 92.8577 45.1091 92.8577C44.9154 92.8577 44.6992 92.9266 44.4605 93.0655C44.2252 93.2002 43.9849 93.4079 43.7392 93.6886C43.4937 93.9662 43.2515 94.3178 43.0128 94.7454C42.7776 95.1689 42.5613 95.6674 42.3642 96.2419C42.2016 96.7212 42.0788 97.164 41.9958 97.5713C41.9162 97.9796 41.8764 98.3201 41.8764 98.5926C41.8764 98.9017 41.9301 99.1449 42.0373 99.3232C42.148 99.4975 42.3192 99.5846 42.551 99.5846ZM50.324 92.7331H51.092L49.7687 96.8894C49.7203 97.0434 49.6719 97.2015 49.6234 97.3636C49.5751 97.5227 49.5318 97.6807 49.4938 97.8388C49.4591 97.9928 49.4297 98.1438 49.4056 98.2897C49.3848 98.4325 49.3744 98.5653 49.3744 98.6879C49.3744 98.9604 49.4384 99.1783 49.5664 99.3404C49.6944 99.5035 49.8898 99.5846 50.1527 99.5846C50.3845 99.5846 50.6093 99.5268 50.8273 99.4123C51.0452 99.2968 51.2597 99.1256 51.4707 98.8956C51.6852 98.6625 51.8997 98.3707 52.1142 98.0232C52.3286 97.6746 52.55 97.2653 52.7784 96.7941L53.0326 96.2713L54.1637 92.7331H54.9317L53.6085 96.8894C53.5601 97.0434 53.5117 97.2015 53.4633 97.3636C53.4148 97.5227 53.3716 97.6807 53.3335 97.8388C53.2989 97.9928 53.2695 98.1438 53.2453 98.2897C53.2246 98.4325 53.2141 98.5653 53.2141 98.6879C53.2141 98.9604 53.2764 99.1783 53.401 99.3404C53.529 99.5035 53.7262 99.5846 53.9925 99.5846C54.2243 99.5846 54.4474 99.5268 54.6619 99.4123C54.8798 99.2968 55.0943 99.1256 55.3053 98.8956C55.5198 98.6625 55.7342 98.3707 55.9487 98.0232C56.1632 97.6706 56.3864 97.2613 56.6181 96.7941L56.8879 96.248L57.0228 96.3605L56.7582 96.9066C56.5091 97.4213 56.2687 97.8662 56.0369 98.2421C55.8086 98.6149 55.5786 98.923 55.3468 99.1692C55.1185 99.4103 54.8833 99.5907 54.6412 99.7092C54.4024 99.8237 54.1482 99.8815 53.8783 99.8815C53.6674 99.8815 53.4805 99.844 53.3179 99.768C53.1588 99.6971 53.0239 99.5937 52.9132 99.46C52.806 99.3252 52.7247 99.1631 52.6693 98.9726C52.614 98.7831 52.5864 98.5714 52.5864 98.3373C52.5864 98.1833 52.5984 98.0171 52.6227 97.8388C52.6468 97.6564 52.6832 97.471 52.7316 97.2805C52.4998 97.7284 52.2767 98.1154 52.0623 98.4447C51.8478 98.7689 51.6333 99.0385 51.4188 99.2523C51.2043 99.466 50.9829 99.6241 50.7546 99.7265C50.5298 99.8298 50.2911 99.8815 50.0386 99.8815C49.8275 99.8815 49.6408 99.844 49.4782 99.768C49.319 99.6971 49.1859 99.5937 49.0786 99.46C48.9679 99.3252 48.8849 99.1631 48.8296 98.9726C48.7742 98.7831 48.7465 98.5714 48.7465 98.3373C48.7465 98.1316 48.769 97.9057 48.814 97.6605C48.8555 97.4153 48.9178 97.1579 49.0008 96.8894L50.324 92.7331ZM60.7848 94.1577C60.6672 94.1577 60.5738 94.1202 60.5046 94.0453C60.4388 93.9662 60.406 93.8588 60.406 93.7241C60.406 93.5974 60.4354 93.4951 60.4942 93.416C60.553 93.337 60.6308 93.2975 60.7277 93.2975C60.7623 93.2975 60.7952 93.3046 60.8263 93.3208C60.8436 93.3289 60.8557 93.335 60.8627 93.339C60.8696 93.339 60.8765 93.339 60.8834 93.339C60.9145 93.339 60.93 93.3127 60.93 93.261C60.93 93.2103 60.9128 93.1607 60.8782 93.1131C60.8436 93.0614 60.7969 93.0178 60.7381 92.9824C60.6793 92.9429 60.6101 92.9135 60.5306 92.8932C60.4544 92.8699 60.3749 92.8577 60.2918 92.8577C60.0773 92.8577 59.8594 92.9287 59.638 93.0715C59.4201 93.2144 59.2073 93.4099 58.9998 93.6592C58.7957 93.9044 58.602 94.1932 58.4187 94.5265C58.2388 94.8589 58.0813 95.2145 57.9465 95.5945C57.8115 95.9704 57.7043 96.3605 57.6247 96.7638C57.5487 97.168 57.5106 97.5642 57.5106 97.9513C57.5106 98.2441 57.5331 98.4944 57.5781 98.7C57.6265 98.9057 57.6991 99.0739 57.796 99.2046C57.8963 99.3353 58.0243 99.4316 58.18 99.4954C58.3356 99.5542 58.5224 99.5846 58.7404 99.5846C59.0621 99.5846 59.3752 99.5228 59.6795 99.4002C59.9874 99.2776 60.2832 99.0993 60.5669 98.8662C60.854 98.6281 61.1255 98.3373 61.3815 97.9928C61.641 97.6453 61.8813 97.245 62.1027 96.7941L62.3726 96.248L62.5127 96.3605L62.2428 96.9066C61.7482 97.9117 61.2017 98.6605 60.6032 99.1509C60.0047 99.6373 59.3509 99.8815 58.6417 99.8815C57.9984 99.8815 57.514 99.691 57.1889 99.311C56.8671 98.9311 56.7063 98.3788 56.7063 97.6544C56.7063 97.4406 56.7201 97.2217 56.7478 96.9958C56.7755 96.7698 56.8152 96.5429 56.8671 96.3129C56.9917 95.7829 57.1664 95.2915 57.3912 94.8406C57.6195 94.3897 57.879 93.9997 58.1695 93.6714C58.4636 93.3431 58.7801 93.0857 59.1191 92.8993C59.4616 92.7128 59.8093 92.6206 60.1621 92.6206C60.5323 92.6206 60.8142 92.7311 61.0079 92.953C61.0875 93.0442 61.148 93.1445 61.1895 93.2559C61.2311 93.3623 61.2518 93.4728 61.2518 93.5883C61.2518 93.7626 61.2086 93.9004 61.122 94.0037C61.0391 94.106 60.9266 94.1577 60.7848 94.1577ZM62.3571 96.3007C62.4816 95.8741 62.6303 95.4861 62.8033 95.1375C62.9763 94.7849 63.163 94.4728 63.3637 94.1993C63.5677 93.9267 63.7805 93.6906 64.0019 93.493C64.2268 93.2955 64.4498 93.1333 64.6712 93.0067C64.8961 92.876 65.1158 92.7787 65.3303 92.7149C65.5482 92.6521 65.7523 92.6206 65.9426 92.6206C66.1397 92.6206 66.3041 92.6561 66.4355 92.727C66.567 92.7949 66.6725 92.8912 66.752 93.0178C66.835 93.1404 66.8938 93.2914 66.9285 93.4697C66.963 93.643 66.9804 93.8375 66.9804 94.0513L67.4007 92.7331H68.1686L66.8454 96.8894C66.797 97.0434 66.7485 97.2015 66.7002 97.3636C66.6517 97.5227 66.6084 97.6807 66.5704 97.8388C66.5358 97.9928 66.5064 98.1438 66.4822 98.2897C66.4614 98.4325 66.4511 98.5653 66.4511 98.6879C66.4511 98.9604 66.5133 99.1783 66.6378 99.3404C66.7659 99.5035 66.963 99.5846 67.2294 99.5846C67.4611 99.5846 67.686 99.5289 67.9039 99.4184C68.1219 99.3029 68.3364 99.1307 68.5474 98.9017C68.7619 98.6676 68.9764 98.3768 69.1908 98.0293C69.4052 97.6767 69.6266 97.2653 69.855 96.7941L70.1196 96.248L70.2597 96.3605L69.9899 96.9066C69.7373 97.4213 69.4952 97.8662 69.2635 98.2421C69.0352 98.6149 68.8069 98.923 68.5785 99.1692C68.3502 99.4103 68.1167 99.5907 67.878 99.7092C67.6393 99.8237 67.3851 99.8815 67.1152 99.8815C66.9042 99.8815 66.7174 99.844 66.5548 99.768C66.3957 99.6971 66.2608 99.5937 66.1501 99.46C66.0429 99.3252 65.9616 99.1631 65.9063 98.9726C65.8509 98.7831 65.8232 98.5714 65.8232 98.3373C65.8232 98.1833 65.8353 98.0171 65.8595 97.8388C65.8838 97.6564 65.9201 97.469 65.9685 97.2744C65.5154 98.1458 65.0674 98.7983 64.6246 99.234C64.1818 99.6657 63.7321 99.8815 63.2755 99.8815C63.061 99.8815 62.8776 99.8379 62.7255 99.7508C62.5767 99.6596 62.4539 99.5349 62.3571 99.3769C62.2602 99.2138 62.1892 99.0263 62.1443 98.8125C62.0993 98.5947 62.0769 98.3576 62.0769 98.1002C62.0769 97.8226 62.101 97.5318 62.1495 97.2278C62.1979 96.9188 62.2671 96.6097 62.3571 96.3007ZM63.4623 99.5846C63.649 99.5846 63.8393 99.5289 64.033 99.4184C64.2268 99.3029 64.4188 99.1489 64.609 98.9554C64.8027 98.7568 64.9895 98.5278 65.1694 98.2664C65.3493 98.0009 65.5188 97.7202 65.678 97.4234C65.8405 97.1224 65.9892 96.8134 66.1242 96.4973C66.2591 96.1801 66.375 95.8701 66.4718 95.5651C66.5721 95.2561 66.6483 94.9632 66.7002 94.6866C66.7555 94.4049 66.7832 94.1537 66.7832 93.9328C66.7832 93.7301 66.7607 93.5619 66.7157 93.4282C66.6742 93.2894 66.6171 93.1779 66.5445 93.0948C66.4752 93.0077 66.394 92.9469 66.3006 92.9114C66.2106 92.876 66.1172 92.8577 66.0204 92.8577C65.8266 92.8577 65.6105 92.9266 65.3718 93.0655C65.1365 93.2002 64.8961 93.4079 64.6505 93.6886C64.4049 93.9662 64.1627 94.3178 63.9241 94.7454C63.6889 95.1689 63.4726 95.6674 63.2755 96.2419C63.1129 96.7212 62.9901 97.164 62.907 97.5713C62.8275 97.9796 62.7877 98.3201 62.7877 98.5926C62.7877 98.9017 62.8413 99.1449 62.9485 99.3232C63.0592 99.4975 63.2305 99.5846 63.4623 99.5846ZM69.7097 92.7331H71.2248L71.7178 91.1778H72.4858L71.9928 92.7331H73.5494V92.9702H71.915L70.6697 96.8894C70.6212 97.0434 70.5728 97.2015 70.5243 97.3636C70.4793 97.5257 70.4379 97.6868 70.3998 97.8449C70.3652 97.9989 70.3358 98.1499 70.3116 98.2958C70.2908 98.4386 70.2804 98.5693 70.2804 98.6879C70.2804 98.9604 70.3445 99.1783 70.4724 99.3404C70.604 99.5035 70.8011 99.5846 71.064 99.5846C71.3199 99.5846 71.569 99.5289 71.8112 99.4184C72.0534 99.307 72.292 99.1367 72.5272 98.9078C72.7625 98.6777 72.996 98.389 73.2277 98.0404C73.4596 97.6888 73.693 97.2724 73.9283 96.7941L74.198 96.248L74.3382 96.3605L74.0684 96.9066C73.7951 97.4609 73.5304 97.928 73.2745 98.3079C73.0185 98.6838 72.7642 98.9888 72.5117 99.2219C72.2626 99.4559 72.0084 99.6241 71.7489 99.7265C71.493 99.8298 71.2266 99.8815 70.9499 99.8815C70.7388 99.8815 70.5521 99.844 70.3895 99.768C70.2269 99.6971 70.0919 99.5937 69.9847 99.46C69.874 99.3252 69.791 99.1631 69.7356 98.9726C69.6768 98.7831 69.6474 98.5714 69.6474 98.3373C69.6474 98.1316 69.6682 97.9057 69.7097 97.6605C69.7512 97.4153 69.8152 97.1579 69.9017 96.8894L71.147 92.9702H69.7097V92.7331ZM75.3189 92.7331H76.0869L74.7637 96.8894C74.7152 97.0434 74.6668 97.2015 74.6184 97.3636C74.57 97.5227 74.5267 97.6807 74.4887 97.8388C74.4541 97.9928 74.4247 98.1438 74.4005 98.2897C74.3797 98.4325 74.3693 98.5653 74.3693 98.6879C74.3693 98.9604 74.4316 99.1783 74.5561 99.3404C74.6841 99.5035 74.8813 99.5846 75.1476 99.5846C75.3794 99.5846 75.6026 99.5268 75.817 99.4123C76.035 99.2968 76.2495 99.1256 76.4604 98.8956C76.6749 98.6625 76.8894 98.3707 77.1039 98.0232C77.3184 97.6706 77.5414 97.2613 77.7733 96.7941L78.043 96.248L78.1831 96.3605L77.9134 96.9066C77.6608 97.4173 77.4187 97.8611 77.1868 98.237C76.9585 98.6089 76.7286 98.9169 76.4968 99.1631C76.2684 99.4042 76.035 99.5846 75.7962 99.7031C75.5576 99.8217 75.3033 99.8815 75.0335 99.8815C74.8225 99.8815 74.6357 99.844 74.4731 99.768C74.314 99.6971 74.1808 99.5937 74.0735 99.46C73.9628 99.3252 73.8799 99.1631 73.8245 98.9726C73.7692 98.7831 73.7414 98.5714 73.7414 98.3373C73.7414 98.1316 73.7639 97.9057 73.8089 97.6605C73.8505 97.4153 73.9127 97.1579 73.9957 96.8894L75.3189 92.7331ZM75.734 91.1778C75.734 91.039 75.7755 90.9204 75.8585 90.8211C75.945 90.7229 76.0488 90.6732 76.1699 90.6732C76.2909 90.6732 76.393 90.7229 76.476 90.8211C76.5625 90.9164 76.6057 91.0329 76.6057 91.1717C76.6057 91.2386 76.5936 91.3045 76.5694 91.3673C76.5486 91.4271 76.5175 91.4787 76.476 91.5223C76.4379 91.5659 76.3913 91.6013 76.3359 91.6287C76.284 91.653 76.227 91.6642 76.1647 91.6642C76.0436 91.6642 75.9416 91.6186 75.8585 91.5284C75.7755 91.4331 75.734 91.3166 75.734 91.1778ZM78.0275 96.3007C78.152 95.8741 78.3008 95.4861 78.4738 95.1375C78.6467 94.7849 78.8335 94.4728 79.0342 94.1993C79.2383 93.9267 79.451 93.6906 79.6724 93.493C79.8972 93.2955 80.1204 93.1333 80.3418 93.0067C80.5666 92.876 80.7863 92.7787 81.0007 92.7149C81.2187 92.6521 81.4228 92.6206 81.613 92.6206C81.8102 92.6206 81.9745 92.6561 82.1059 92.727C82.2374 92.7949 82.3429 92.8912 82.4225 93.0178C82.5055 93.1404 82.5643 93.2914 82.5989 93.4697C82.6335 93.643 82.6508 93.8375 82.6508 94.0513L83.0711 92.7331H83.8391L82.5159 96.8894C82.4674 97.0434 82.4191 97.2015 82.3706 97.3636C82.3222 97.5227 82.2789 97.6807 82.2409 97.8388C82.2063 97.9928 82.1769 98.1438 82.1527 98.2897C82.1319 98.4325 82.1215 98.5653 82.1215 98.6879C82.1215 98.9604 82.1838 99.1783 82.3084 99.3404C82.4363 99.5035 82.6335 99.5846 82.8999 99.5846C83.1316 99.5846 83.3565 99.5289 83.5744 99.4184C83.7923 99.3029 84.0068 99.1307 84.2179 98.9017C84.4323 98.6676 84.6468 98.3768 84.8613 98.0293C85.0758 97.6767 85.2972 97.2653 85.5255 96.7941L85.7901 96.248L85.9302 96.3605L85.6604 96.9066C85.4079 97.4213 85.1657 97.8662 84.9339 98.2421C84.7056 98.6149 84.4773 98.923 84.249 99.1692C84.0206 99.4103 83.7872 99.5907 83.5484 99.7092C83.3098 99.8237 83.0555 99.8815 82.7857 99.8815C82.5747 99.8815 82.3879 99.844 82.2253 99.768C82.0662 99.6971 81.9313 99.5937 81.8206 99.46C81.7134 99.3252 81.6321 99.1631 81.5767 98.9726C81.5214 98.7831 81.4937 98.5714 81.4937 98.3373C81.4937 98.1833 81.5058 98.0171 81.53 97.8388C81.5542 97.6564 81.5905 97.469 81.639 97.2744C81.1858 98.1458 80.7378 98.7983 80.295 99.234C79.8522 99.6657 79.4026 99.8815 78.9459 99.8815C78.7315 99.8815 78.5482 99.8379 78.3959 99.7508C78.2471 99.6596 78.1243 99.5349 78.0275 99.3769C77.9306 99.2138 77.8597 99.0263 77.8147 98.8125C77.7698 98.5947 77.7473 98.3576 77.7473 98.1002C77.7473 97.8226 77.7715 97.5318 77.8199 97.2278C77.8684 96.9188 77.9375 96.6097 78.0275 96.3007ZM79.1327 99.5846C79.3196 99.5846 79.5098 99.5289 79.7035 99.4184C79.8972 99.3029 80.0892 99.1489 80.2794 98.9554C80.4732 98.7568 80.66 98.5278 80.8398 98.2664C81.0198 98.0009 81.1893 97.7202 81.3484 97.4234C81.511 97.1224 81.6597 96.8134 81.7947 96.4973C81.9295 96.1801 82.0455 95.8701 82.1423 95.5651C82.2426 95.2561 82.3187 94.9632 82.3706 94.6866C82.426 94.4049 82.4536 94.1537 82.4536 93.9328C82.4536 93.7301 82.4311 93.5619 82.3861 93.4282C82.3447 93.2894 82.2876 93.1779 82.215 93.0948C82.1458 93.0077 82.0645 92.9469 81.9711 92.9114C81.8811 92.876 81.7878 92.8577 81.6909 92.8577C81.4971 92.8577 81.2809 92.9266 81.0423 93.0655C80.807 93.2002 80.5666 93.4079 80.321 93.6886C80.0754 93.9662 79.8332 94.3178 79.5945 94.7454C79.3593 95.1689 79.1431 95.6674 78.9459 96.2419C78.7834 96.7212 78.6605 97.164 78.5776 97.5713C78.4979 97.9796 78.4582 98.3201 78.4582 98.5926C78.4582 98.9017 78.5118 99.1449 78.619 99.3232C78.7297 99.4975 78.901 99.5846 79.1327 99.5846ZM86.9057 92.7331H87.6736L86.859 95.2865C87.0907 94.8346 87.3139 94.4424 87.5284 94.1101C87.7429 93.7737 87.9556 93.4971 88.1666 93.2792C88.3811 93.0573 88.5973 92.8932 88.8152 92.7868C89.0331 92.6754 89.2632 92.6206 89.505 92.6206C89.7237 92.6206 89.9132 92.6622 90.0762 92.7453C90.2391 92.8243 90.3755 92.9347 90.4862 93.0776C90.5969 93.2164 90.6801 93.3785 90.735 93.564C90.7908 93.7504 90.8183 93.946 90.8183 94.1516C90.8183 94.3776 90.7891 94.6228 90.7297 94.8883C90.6748 95.1537 90.604 95.4263 90.5172 95.708C90.4304 95.9886 90.3374 96.2734 90.2373 96.5621C90.1364 96.8479 90.0434 97.1224 89.9566 97.3879C89.8707 97.6524 89.7972 97.9026 89.7388 98.1357C89.6839 98.3657 89.6555 98.5673 89.6555 98.7416C89.6555 98.9827 89.7202 99.1844 89.8477 99.3465C89.9796 99.5056 90.1833 99.5846 90.4605 99.5846C90.6819 99.5846 90.898 99.5268 91.1088 99.4123C91.3231 99.2938 91.5356 99.1195 91.7472 98.8895C91.9616 98.6565 92.1759 98.3657 92.3902 98.0171C92.608 97.6645 92.8312 97.2572 93.0597 96.7941L93.3298 96.248L93.4697 96.3605L93.1996 96.9066C92.9507 97.4051 92.7116 97.8428 92.4841 98.2188C92.2556 98.5906 92.0271 98.8996 91.7986 99.1448C91.5701 99.3901 91.3372 99.5745 91.0981 99.6971C90.8634 99.8197 90.6119 99.8815 90.3463 99.8815C90.1284 99.8815 89.9363 99.844 89.7698 99.768C89.6077 99.693 89.4704 99.5907 89.3597 99.46C89.2491 99.3293 89.1667 99.1783 89.111 99.0081C89.0556 98.8338 89.0279 98.6504 89.0279 98.4559C89.0279 98.2502 89.0556 98.0212 89.111 97.7679C89.1693 97.5105 89.2428 97.243 89.3288 96.9664C89.4155 96.6847 89.5085 96.402 89.6095 96.1173C89.7095 95.8285 89.8025 95.5489 89.8893 95.2804C89.9761 95.0068 90.047 94.7494 90.1019 94.5083C90.1612 94.2631 90.1904 94.0452 90.1904 93.8548C90.1904 93.721 90.1745 93.5964 90.1435 93.4809C90.1125 93.3664 90.062 93.2671 89.9929 93.184C89.9274 93.1009 89.8424 93.0361 89.7388 92.9885C89.6387 92.9408 89.5174 92.9175 89.3757 92.9175C89.1578 92.9175 88.945 92.9783 88.7374 93.1009C88.5298 93.2195 88.3205 93.3998 88.1095 93.641C87.902 93.8831 87.6892 94.1861 87.4713 94.5498C87.2568 94.9095 87.0303 95.331 86.7916 95.8144L86.5218 96.3605L85.4321 99.768H84.6641L86.9057 92.7331ZM93.3138 96.3007C93.4387 95.8741 93.5875 95.4861 93.7602 95.1375C93.9328 94.7849 94.1197 94.4728 94.3207 94.1993C94.5244 93.9267 94.7378 93.6906 94.9592 93.493C95.1842 93.2955 95.4064 93.1333 95.6278 93.0067C95.8528 92.876 96.0724 92.7787 96.2876 92.7149C96.5054 92.6521 96.7091 92.6206 96.8995 92.6206C97.097 92.6206 97.2608 92.6561 97.3928 92.727C97.5238 92.7949 97.6292 92.8912 97.7089 93.0178C97.7922 93.1404 97.8506 93.2914 97.8852 93.4697C97.9197 93.643 97.9374 93.8375 97.9374 94.0513L98.358 92.7331H99.1258L97.8028 96.8894C97.7541 97.0434 97.7054 97.2015 97.6567 97.3636C97.6089 97.5227 97.5655 97.6807 97.5274 97.8388C97.4928 97.9928 97.4636 98.1438 97.4388 98.2897C97.4185 98.4325 97.4078 98.5653 97.4078 98.6879C97.4078 98.9604 97.4707 99.1783 97.5947 99.3404C97.7231 99.5035 97.9197 99.5846 98.1862 99.5846C98.4183 99.5846 98.6432 99.5289 98.861 99.4184C99.0789 99.3029 99.2932 99.1307 99.504 98.9017C99.7192 98.6676 99.9335 98.3768 100.148 98.0293C100.362 97.6767 100.583 97.2653 100.812 96.7941L101.077 96.248L101.217 96.3605L100.947 96.9066C100.694 97.4213 100.452 97.8662 100.22 98.2421C99.9919 98.6149 99.7635 98.923 99.5359 99.1692C99.3074 99.4103 99.0736 99.5907 98.8354 99.7092C98.5963 99.8237 98.3421 99.8815 98.072 99.8815C97.8612 99.8815 97.6744 99.844 97.5114 99.768C97.3529 99.6971 97.2174 99.5937 97.1067 99.46C96.9996 99.3252 96.9181 99.1631 96.8632 98.9726C96.8083 98.7831 96.78 98.5714 96.78 98.3373C96.78 98.1833 96.7924 98.0171 96.8163 97.8388C96.8411 97.6564 96.8774 97.469 96.9252 97.2744C96.4727 98.1458 96.0246 98.7983 95.5818 99.234C95.139 99.6657 94.6891 99.8815 94.2322 99.8815C94.0179 99.8815 93.8345 99.8379 93.6822 99.7508C93.5335 99.6596 93.4112 99.5349 93.3138 99.3769C93.2173 99.2138 93.1465 99.0263 93.1013 98.8125C93.0561 98.5947 93.034 98.3576 93.034 98.1002C93.034 97.8226 93.0579 97.5318 93.1066 97.2278C93.1544 96.9188 93.2244 96.6097 93.3138 96.3007ZM94.419 99.5846C94.6059 99.5846 94.7963 99.5289 94.9902 99.4184C95.1842 99.3029 95.3754 99.1489 95.5658 98.9554C95.7598 98.7568 95.9466 98.5278 96.1264 98.2664C96.3062 98.0009 96.4753 97.7202 96.6347 97.4234C96.7977 97.1224 96.9464 96.8134 97.0811 96.4973C97.2157 96.1801 97.3317 95.8701 97.4291 95.5651C97.5292 95.2561 97.6053 94.9632 97.6567 94.6866C97.7125 94.4049 97.7399 94.1537 97.7399 93.9328C97.7399 93.7301 97.7178 93.5619 97.6726 93.4282C97.631 93.2894 97.5743 93.1779 97.5017 93.0948C97.4326 93.0077 97.3512 92.9469 97.2573 92.9114C97.1678 92.876 97.074 92.8577 96.9774 92.8577C96.7835 92.8577 96.5674 92.9266 96.3283 93.0655C96.0936 93.2002 95.8528 93.4079 95.6075 93.6886C95.3622 93.9662 95.1195 94.3178 94.8813 94.7454C94.6457 95.1689 94.4296 95.6674 94.2322 96.2419C94.0701 96.7212 93.947 97.164 93.8638 97.5713C93.7841 97.9796 93.7451 98.3201 93.7451 98.5926C93.7451 98.9017 93.7982 99.1449 93.9054 99.3232C94.0161 99.4975 94.1879 99.5846 94.419 99.5846ZM103.189 89.6042H103.962L101.642 96.8894C101.594 97.0434 101.545 97.2015 101.497 97.3636C101.449 97.5227 101.405 97.6807 101.367 97.8388C101.333 97.9928 101.303 98.1438 101.279 98.2897C101.258 98.4325 101.248 98.5653 101.248 98.6879C101.248 98.9604 101.31 99.1783 101.435 99.3404C101.563 99.5035 101.76 99.5846 102.026 99.5846C102.258 99.5846 102.481 99.5268 102.696 99.4123C102.913 99.2968 103.128 99.1256 103.338 98.8956C103.554 98.6625 103.768 98.3707 103.982 98.0232C104.197 97.6706 104.42 97.2613 104.652 96.7941L104.922 96.248L105.062 96.3605L104.792 96.9066C104.539 97.4173 104.298 97.8611 104.066 98.237C103.837 98.6089 103.607 98.9169 103.376 99.1631C103.147 99.4042 102.913 99.5846 102.674 99.7031C102.436 99.8217 102.182 99.8815 101.912 99.8815C101.701 99.8815 101.514 99.844 101.351 99.768C101.193 99.6971 101.059 99.5937 100.952 99.46C100.841 99.3252 100.758 99.1631 100.703 98.9726C100.647 98.7831 100.62 98.5714 100.62 98.3373C100.62 98.1316 100.641 97.9077 100.682 97.6665C100.723 97.4213 100.788 97.162 100.874 96.8894L103.189 89.6042ZM111.195 100C110.811 100 110.468 99.9301 110.167 99.7923C109.867 99.6575 109.612 99.462 109.405 99.2046C109.201 98.9432 109.043 98.624 108.933 98.2481C108.826 97.8682 108.771 97.4376 108.771 96.9542C108.771 96.6888 108.787 96.4081 108.818 96.1112C108.853 95.8144 108.905 95.5134 108.974 95.2084C109.081 94.7261 109.221 94.2692 109.394 93.8375C109.568 93.4018 109.766 93.0006 109.991 92.6318C110.219 92.264 110.468 91.9316 110.738 91.6348C111.012 91.3338 111.299 91.0785 111.6 90.8688C111.9 90.659 112.214 90.4989 112.539 90.3885C112.864 90.273 113.194 90.2162 113.53 90.2162C113.689 90.2162 113.85 90.2375 114.012 90.2811C114.175 90.3247 114.32 90.3976 114.448 90.501C114.58 90.6003 114.685 90.734 114.765 90.9042C114.848 91.0704 114.889 91.2781 114.889 91.5284C114.889 91.7493 114.86 91.955 114.801 92.1454C114.746 92.3309 114.667 92.5031 114.562 92.6622C114.462 92.8162 114.344 92.9591 114.21 93.0898C114.075 93.2195 113.929 93.337 113.774 93.4393L113.68 93.2914C113.961 93.034 114.166 92.7514 114.298 92.4423C114.433 92.1292 114.5 91.803 114.5 91.4625C114.5 91.1069 114.428 90.8475 114.282 90.6844C114.141 90.5222 113.931 90.4412 113.655 90.4412C113.301 90.4412 112.942 90.5618 112.575 90.8039C112.212 91.041 111.863 91.3693 111.527 91.7888C111.192 92.2083 110.884 92.7037 110.604 93.2732C110.323 93.8396 110.092 94.4505 109.908 95.1081C109.791 95.5317 109.7 95.9491 109.638 96.3605C109.576 96.7678 109.545 97.1498 109.545 97.5065C109.545 98.9746 110.121 99.7092 111.272 99.7092C111.93 99.7092 112.535 99.4711 113.089 98.9969C113.642 98.5177 114.165 97.7831 114.656 96.7941L114.925 96.248L115.066 96.3605L114.796 96.9066C114.533 97.4376 114.265 97.8965 113.992 98.2836C113.718 98.6717 113.435 98.9929 113.141 99.2462C112.847 99.4995 112.539 99.6869 112.217 99.8095C111.896 99.9362 111.555 100 111.195 100ZM116.705 99.8815C116.079 99.8815 115.597 99.695 115.257 99.3232C114.919 98.9473 114.749 98.389 114.749 97.6493C114.749 97.4467 114.763 97.2329 114.791 97.0079C114.815 96.782 114.854 96.551 114.91 96.3129C115.035 95.7829 115.21 95.2915 115.435 94.8406C115.663 94.3897 115.923 93.9997 116.217 93.6714C116.512 93.3431 116.828 93.0857 117.168 92.8993C117.507 92.7128 117.847 92.6206 118.19 92.6206C118.536 92.6206 118.807 92.7128 119.004 92.8993C119.205 93.0857 119.305 93.3461 119.305 93.6825C119.305 93.873 119.273 94.0594 119.206 94.2408C119.141 94.4232 119.046 94.5954 118.921 94.7575C118.797 94.9197 118.646 95.0727 118.469 95.2145C118.297 95.3533 118.101 95.4739 117.883 95.5773C117.614 95.708 117.316 95.8063 116.991 95.8741C116.665 95.937 116.295 95.9684 115.881 95.9684C115.78 96.2896 115.7 96.6239 115.642 96.9725C115.587 97.316 115.559 97.6686 115.559 98.0293C115.559 98.5795 115.659 98.9767 115.86 99.2219C116.064 99.464 116.384 99.5846 116.82 99.5846C117.183 99.5846 117.529 99.5056 117.857 99.3465C118.186 99.1844 118.491 98.9726 118.77 98.7112C119.051 98.4508 119.307 98.1539 119.538 97.8206C119.77 97.4842 119.973 97.1427 120.146 96.7941L120.416 96.248L120.556 96.3605L120.286 96.9066C120.071 97.3383 119.836 97.7354 119.58 98.1002C119.327 98.464 119.051 98.7791 118.75 99.0435C118.453 99.3049 118.133 99.5106 117.79 99.6616C117.451 99.8075 117.09 99.8815 116.705 99.8815ZM118.335 92.8577C118.117 92.8577 117.894 92.9307 117.665 93.0776C117.44 93.2235 117.222 93.4282 117.012 93.6886C116.801 93.9459 116.603 94.2509 116.42 94.6035C116.237 94.9551 116.077 95.3391 115.943 95.7546C116.324 95.7475 116.649 95.709 116.918 95.6421C117.188 95.5712 117.424 95.482 117.624 95.3746C117.783 95.2915 117.937 95.1851 118.086 95.0544C118.238 94.9197 118.371 94.7677 118.485 94.5975C118.603 94.4272 118.696 94.2428 118.765 94.0453C118.838 93.8477 118.874 93.641 118.874 93.4282C118.874 93.3208 118.861 93.2316 118.833 93.1607C118.805 93.0898 118.767 93.032 118.719 92.9885C118.67 92.9408 118.614 92.9074 118.547 92.8871C118.482 92.8679 118.411 92.8577 118.335 92.8577ZM121.536 92.7331H122.305L121.49 95.2865C121.721 94.8346 121.944 94.4424 122.159 94.1101C122.374 93.7737 122.586 93.4971 122.797 93.2792C123.011 93.0573 123.228 92.8932 123.446 92.7868C123.664 92.6754 123.894 92.6206 124.136 92.6206C124.354 92.6206 124.544 92.6622 124.706 92.7453C124.869 92.8243 125.006 92.9347 125.116 93.0776C125.227 93.2164 125.31 93.3785 125.366 93.564C125.421 93.7504 125.449 93.946 125.449 94.1516C125.449 94.3776 125.419 94.6228 125.361 94.8883C125.305 95.1537 125.234 95.4263 125.147 95.708C125.062 95.9886 124.968 96.2734 124.868 96.5621C124.768 96.8479 124.674 97.1224 124.588 97.3879C124.501 97.6524 124.428 97.9026 124.37 98.1357C124.314 98.3657 124.287 98.5673 124.287 98.7416C124.287 98.9827 124.35 99.1844 124.479 99.3465C124.61 99.5056 124.814 99.5846 125.091 99.5846C125.312 99.5846 125.528 99.5268 125.739 99.4123C125.954 99.2938 126.167 99.1195 126.378 98.8895C126.592 98.6565 126.806 98.3657 127.021 98.0171C127.239 97.6645 127.462 97.2572 127.691 96.7941L127.96 96.248L128.1 96.3605L127.831 96.9066C127.582 97.4051 127.343 97.8428 127.114 98.2188C126.886 98.5906 126.658 98.8996 126.43 99.1448C126.201 99.3901 125.968 99.5745 125.729 99.6971C125.494 99.8197 125.243 99.8815 124.977 99.8815C124.759 99.8815 124.567 99.844 124.401 99.768C124.238 99.693 124.102 99.5907 123.991 99.46C123.88 99.3293 123.797 99.1783 123.742 99.0081C123.686 98.8338 123.659 98.6504 123.659 98.4559C123.659 98.2502 123.686 98.0212 123.742 97.7679C123.801 97.5105 123.873 97.243 123.96 96.9664C124.046 96.6847 124.14 96.402 124.24 96.1173C124.34 95.8285 124.434 95.5489 124.52 95.2804C124.606 95.0068 124.677 94.7494 124.733 94.5083C124.791 94.2631 124.821 94.0452 124.821 93.8548C124.821 93.721 124.806 93.5964 124.775 93.4809C124.743 93.3664 124.693 93.2671 124.624 93.184C124.558 93.1009 124.474 93.0361 124.37 92.9885C124.269 92.9408 124.149 92.9175 124.006 92.9175C123.788 92.9175 123.576 92.9783 123.368 93.1009C123.16 93.2195 122.951 93.3998 122.74 93.641C122.532 93.8831 122.32 94.1861 122.102 94.5498C121.888 94.9095 121.661 95.331 121.422 95.8144L121.153 96.3605L120.063 99.768H119.295L121.536 92.7331ZM127.555 92.7331H129.071L129.564 91.1778H130.332L129.838 92.7331H131.395V92.9702H129.76L128.515 96.8894C128.467 97.0434 128.419 97.2015 128.37 97.3636C128.325 97.5257 128.283 97.6868 128.246 97.8449C128.211 97.9989 128.181 98.1499 128.158 98.2958C128.136 98.4386 128.127 98.5693 128.127 98.6879C128.127 98.9604 128.19 99.1783 128.319 99.3404C128.45 99.5035 128.647 99.5846 128.91 99.5846C129.166 99.5846 129.415 99.5289 129.657 99.4184C129.899 99.307 130.138 99.1367 130.373 98.9078C130.608 98.6777 130.842 98.389 131.074 98.0404C131.306 97.6888 131.539 97.2724 131.774 96.7941L132.044 96.248L132.184 96.3605L131.914 96.9066C131.641 97.4609 131.377 97.928 131.121 98.3079C130.865 98.6838 130.61 98.9888 130.357 99.2219C130.108 99.4559 129.854 99.6241 129.595 99.7265C129.339 99.8298 129.072 99.8815 128.796 99.8815C128.584 99.8815 128.398 99.844 128.235 99.768C128.073 99.6971 127.938 99.5937 127.831 99.46C127.72 99.3252 127.637 99.1631 127.582 98.9726C127.523 98.7831 127.493 98.5714 127.493 98.3373C127.493 98.1316 127.514 97.9057 127.555 97.6605C127.597 97.4153 127.661 97.1579 127.748 96.8894L128.993 92.9702H127.555V92.7331ZM133.818 99.8815C133.192 99.8815 132.71 99.695 132.371 99.3232C132.032 98.9473 131.862 98.389 131.862 97.6493C131.862 97.4467 131.876 97.2329 131.904 97.0079C131.928 96.782 131.968 96.551 132.023 96.3129C132.148 95.7829 132.322 95.2915 132.547 94.8406C132.776 94.3897 133.037 93.9997 133.331 93.6714C133.625 93.3431 133.941 93.0857 134.28 92.8993C134.62 92.7128 134.961 92.6206 135.302 92.6206C135.649 92.6206 135.92 92.7128 136.117 92.8993C136.318 93.0857 136.418 93.3461 136.418 93.6825C136.418 93.873 136.385 94.0594 136.32 94.2408C136.253 94.4232 136.159 94.5954 136.034 94.7575C135.91 94.9197 135.759 95.0727 135.583 95.2145C135.41 95.3533 135.215 95.4739 134.997 95.5773C134.727 95.708 134.429 95.8063 134.104 95.8741C133.779 95.937 133.409 95.9684 132.994 95.9684C132.894 96.2896 132.814 96.6239 132.755 96.9725C132.7 97.316 132.672 97.6686 132.672 98.0293C132.672 98.5795 132.772 98.9767 132.972 99.2219C133.177 99.464 133.497 99.5846 133.932 99.5846C134.296 99.5846 134.642 99.5056 134.97 99.3465C135.299 99.1844 135.603 98.9726 135.883 98.7112C136.164 98.4508 136.42 98.1539 136.652 97.8206C136.883 97.4842 137.086 97.1427 137.259 96.7941L137.529 96.248L137.669 96.3605L137.398 96.9066C137.184 97.3383 136.95 97.7354 136.694 98.1002C136.44 98.464 136.164 98.7791 135.863 99.0435C135.565 99.3049 135.246 99.5106 134.903 99.6616C134.564 99.8075 134.202 99.8815 133.818 99.8815ZM135.448 92.8577C135.23 92.8577 135.007 92.9307 134.778 93.0776C134.554 93.2235 134.335 93.4282 134.125 93.6886C133.914 93.9459 133.716 94.2509 133.533 94.6035C133.35 94.9551 133.19 95.3391 133.056 95.7546C133.436 95.7475 133.761 95.709 134.032 95.6421C134.301 95.5712 134.536 95.482 134.737 95.3746C134.896 95.2915 135.05 95.1851 135.199 95.0544C135.351 94.9197 135.484 94.7677 135.598 94.5975C135.716 94.4272 135.81 94.2428 135.879 94.0453C135.951 93.8477 135.988 93.641 135.988 93.4282C135.988 93.3208 135.974 93.2316 135.946 93.1607C135.919 93.0898 135.881 93.032 135.832 92.9885C135.783 92.9408 135.727 92.9074 135.661 92.8871C135.595 92.8679 135.524 92.8577 135.448 92.8577ZM141.41 93.1546C141.41 93.0908 141.374 93.028 141.301 92.9641C141.232 92.8973 141.129 92.8638 140.995 92.8638C140.857 92.8638 140.706 92.9135 140.543 93.0117C140.381 93.107 140.196 93.2772 139.988 93.5224C139.781 93.7676 139.547 94.103 139.287 94.5265C139.031 94.9491 138.741 95.4901 138.416 96.1467L138.157 96.6695L137.175 99.768H136.402L138.644 92.7331H139.412L138.504 95.5823C138.788 95.025 139.047 94.5579 139.282 94.182C139.518 93.8021 139.736 93.4971 139.937 93.2671C140.137 93.034 140.325 92.8679 140.502 92.7686C140.679 92.6693 140.851 92.6206 141.02 92.6206C141.249 92.6206 141.427 92.6977 141.555 92.8517C141.686 93.0067 141.752 93.2083 141.752 93.4576C141.752 93.5599 141.74 93.6592 141.716 93.7545C141.695 93.8456 141.663 93.9247 141.617 93.9915C141.576 94.0594 141.524 94.1121 141.461 94.1516C141.399 94.1912 141.33 94.2114 141.254 94.2114C141.198 94.2114 141.144 94.2013 141.088 94.182C141.036 94.1618 140.989 94.1324 140.948 94.0929C140.906 94.0493 140.872 93.9976 140.844 93.9378C140.82 93.8791 140.808 93.8092 140.808 93.7301C140.808 93.6673 140.817 93.6035 140.834 93.5407C140.855 93.4728 140.882 93.416 140.917 93.3684C140.951 93.3167 140.993 93.2752 141.042 93.2438C141.09 93.2124 141.144 93.1962 141.202 93.1962C141.24 93.1962 141.276 93.2002 141.311 93.2083C141.318 93.2164 141.327 93.2235 141.338 93.2316C141.351 93.2357 141.361 93.2377 141.369 93.2377C141.396 93.2377 141.41 93.2103 141.41 93.1546Z" fill="#CFD39F"/>
<path d="M28.7291 49.212C28.7291 46.291 28.781 42.9723 28.8848 39.2559C28.9055 38.3534 30.6386 37.7834 34.084 37.546C34.1463 37.3204 34.1463 37.0413 34.084 36.7089C31.365 36.8038 29.2428 36.8513 27.7173 36.8513C26.4408 36.8513 24.6299 36.8038 22.2845 36.7089C22.2015 36.9226 22.2015 37.2016 22.2845 37.546C24.6713 37.8072 25.8752 38.3772 25.896 39.2559C25.9997 42.0462 26.0516 45.3649 26.0516 49.212C26.0516 52.976 25.9893 56.7222 25.8648 60.4506C25.8441 61.3292 24.6403 61.8992 22.2534 62.1604C22.1911 62.4573 22.1911 62.7363 22.2534 62.9975C24.2563 62.9263 28.9108 62.8906 36.2167 62.8906C38.7074 62.8906 40.5753 62.3563 41.8207 61.2877C43.066 60.219 44.2283 58.4201 45.3077 55.891C45.2246 55.6892 45.043 55.5289 44.7628 55.4101C44.3581 56.2651 43.9118 57.025 43.424 57.6899C42.9363 58.3549 42.2929 59.0257 41.4938 59.7026C40.6947 60.3675 39.6984 60.884 38.505 61.252C37.3219 61.6201 35.978 61.8042 34.4732 61.8042H28.8536C28.7706 57.6365 28.7291 53.4391 28.7291 49.212ZM31.0952 50.53C31.0952 53.7835 31.1367 57.2981 31.2198 61.074H34.442C39.0498 61.074 42.3967 58.8833 44.4826 54.5018C45.3543 54.8699 45.9044 55.333 46.1327 55.891C44.6486 58.7052 43.7769 61.2817 43.5175 63.6209H30.9551C26.8559 63.6209 23.81 63.6565 21.8175 63.7278C21.5996 62.956 21.5892 62.2019 21.7863 61.4658C24.0591 61.2046 25.2059 60.8543 25.2266 60.415C25.3511 56.6866 25.4134 52.9522 25.4134 49.212C25.4134 45.3886 25.3615 42.0818 25.2578 39.2914C25.237 38.8521 24.0799 38.5018 21.7863 38.2406C21.6099 37.457 21.6306 36.6911 21.8486 35.943C23.6544 36.0617 25.979 36.1211 28.8225 36.1211C29.248 36.1211 30.0989 36.1093 31.3755 36.0855C32.6519 36.0617 33.7675 36.0499 34.7223 36.0499C34.9195 36.7267 34.9298 37.457 34.7534 38.2406C32.46 38.5018 31.3028 38.8521 31.2821 39.2914C31.1575 42.2599 31.0952 46.0061 31.0952 50.53ZM52.982 37.8666C55.3274 37.8666 56.5 38.8402 56.5 40.7876C56.5 42.7349 55.3274 43.7085 52.982 43.7085C52.6292 43.7085 52.2971 43.6313 51.9858 43.477C51.6847 43.3226 51.4201 43.1149 51.1918 42.8535C50.9635 42.5805 50.7819 42.2659 50.647 41.9096C50.5121 41.5534 50.4447 41.1794 50.4447 40.7876C50.4447 40.3957 50.5121 40.0217 50.647 39.6655C50.7819 39.3092 50.9635 39.0005 51.1918 38.7393C51.4201 38.4662 51.6847 38.2524 51.9858 38.0981C52.2971 37.9437 52.6292 37.8666 52.982 37.8666ZM51.5499 39.2559C51.2385 39.6714 51.0829 40.1819 51.0829 40.7876C51.0829 41.0963 51.1244 41.3872 51.2074 41.6603C51.3009 41.9215 51.4254 42.153 51.581 42.3549C51.7366 42.5449 51.9131 42.6992 52.1103 42.818C52.3178 42.9249 52.5358 42.9783 52.7641 42.9783C52.982 42.9783 53.1947 42.9249 53.4023 42.818C53.6099 42.6992 53.7915 42.5449 53.9471 42.3549C54.1028 42.153 54.2273 41.9215 54.3207 41.6603C54.4142 41.3872 54.4608 41.0963 54.4608 40.7876C54.4608 40.4788 54.4142 40.1938 54.3207 39.9326C54.2273 39.6595 54.1028 39.428 53.9471 39.238C53.7915 39.0362 53.6099 38.8818 53.4023 38.775C53.1947 38.6562 52.982 38.5968 52.7641 38.5968C52.5461 38.5968 52.3334 38.6502 52.1259 38.7571C51.9183 38.8639 51.7263 39.0302 51.5499 39.2559ZM57.8389 62.0713C55.3689 61.8101 54.1236 61.2402 54.1028 60.3615C53.999 56.7994 53.9576 52.4239 53.9783 47.2351C53.8952 47.0451 53.7137 46.8907 53.4335 46.7719C51.991 47.5438 50.4914 48.0306 48.9347 48.2324C48.8724 48.5174 48.8724 48.7965 48.9347 49.0695C50.1074 49.1407 50.9998 49.3842 51.6121 49.7998C51.7056 54.2287 51.6952 57.7493 51.581 60.3615C51.5602 61.2402 50.6781 61.8101 48.9347 62.0713C48.8309 62.3682 48.8309 62.6591 48.9347 62.9441C51.9131 62.8729 54.8811 62.8729 57.8389 62.9441C57.9426 62.6591 57.9426 62.3682 57.8389 62.0713ZM58.4148 61.4124C58.5809 62.1485 58.5809 62.8669 58.4148 63.5675C55.0731 63.4487 51.7263 63.4487 48.3743 63.5675C48.1978 62.8669 48.1978 62.1485 48.3743 61.4124C50.0658 61.2224 50.922 60.8602 50.9428 60.3259C51.0777 57.0012 51.088 53.635 50.9739 50.2272C50.2786 49.9897 49.412 49.8354 48.3743 49.7642C48.1356 49.0517 48.1356 48.2977 48.3743 47.5022C49.9413 47.4072 51.7056 46.8728 53.6669 45.8992C54.7878 45.9943 55.6232 46.3801 56.1732 47.0569C56.1316 52.8988 56.1732 57.3218 56.2977 60.3259C56.3289 60.8602 57.0346 61.2224 58.4148 61.4124ZM71.0238 62.0713C70.8993 62.3445 70.8993 62.6354 71.0238 62.9441C73.722 62.8729 76.4254 62.8729 79.134 62.9441C79.2794 62.6591 79.2794 62.3682 79.134 62.0713C76.6019 61.9289 75.3255 61.3589 75.3046 60.3615L75.149 51.4027C75.0971 49.776 74.8636 48.5886 74.4485 47.8406C74.0438 47.0806 73.3277 46.7007 72.3002 46.7007C70.5775 46.7007 68.528 48.0602 66.1515 50.7793V47.2351C66.0684 47.0451 65.8868 46.8907 65.6066 46.7719C64.1641 47.5438 62.6645 48.0306 61.1079 48.2324C61.0456 48.5174 61.0456 48.7965 61.1079 49.0695C62.3013 49.1407 63.1834 49.3842 63.7542 49.7998C63.8684 53.35 63.8684 56.8706 63.7542 60.3615C63.7334 61.2402 62.8409 61.8101 61.0767 62.0713C60.9522 62.3445 60.9522 62.6354 61.0767 62.9441C63.7749 62.8254 66.4887 62.8254 69.2181 62.9441C69.3426 62.6354 69.3426 62.3445 69.2181 62.0713C67.2775 61.8339 66.2967 61.264 66.276 60.3615C66.193 57.8917 66.1515 55.0777 66.1515 51.9192C68.2374 49.8176 69.8719 48.7668 71.055 48.7668C72.1861 48.7668 72.7517 49.8413 72.7517 51.9905L72.7206 60.3615C72.7206 60.9434 72.5649 61.353 72.2536 61.5904C71.9422 61.8161 71.5324 61.9764 71.0238 62.0713ZM70.5257 63.5675C70.2663 62.8669 70.2663 62.1485 70.5257 61.4124C70.8577 61.4124 71.2003 61.3114 71.5531 61.1096C71.9059 60.8959 72.0824 60.6465 72.0824 60.3615L72.1135 51.9905C72.1135 50.6963 71.8904 49.9067 71.4441 49.6216C70.6762 49.8354 69.6435 50.4766 68.3463 51.5453C68.3463 54.8105 68.3879 57.7374 68.4709 60.3259C68.5228 60.9552 68.9379 61.3174 69.7162 61.4124C69.9756 62.1485 69.9756 62.8669 69.7162 63.5675C66.6755 63.4487 63.6192 63.4487 60.5475 63.5675C60.288 62.8669 60.288 62.1485 60.5475 61.4124C62.239 61.1511 63.0952 60.789 63.116 60.3259C63.2301 56.9775 63.2301 53.6112 63.116 50.2272C62.4206 49.9897 61.5645 49.8354 60.5475 49.7642C60.3087 49.0517 60.3087 48.2977 60.5475 47.5022C62.1145 47.4072 63.8787 46.8728 65.8401 45.8992C66.9609 45.9943 67.7963 46.3801 68.3463 47.0569V47.6447C69.82 46.5285 71.5116 45.9704 73.4211 45.9704C74.8221 45.9704 75.8184 46.4098 76.4099 47.2885C77.0118 48.1553 77.3231 49.5267 77.3439 51.4027C77.3854 56.1167 77.4373 59.103 77.4995 60.3615C77.5203 60.8483 78.2519 61.1986 79.6945 61.4124C79.9332 62.196 79.9124 62.9144 79.6322 63.5675C76.5915 63.4962 73.556 63.4962 70.5257 63.5675ZM85.2829 52.5604C85.2829 50.91 85.5527 49.7167 86.0924 48.9805C86.6424 48.2324 87.3326 47.8584 88.1628 47.8584C88.7751 47.8584 89.3403 48.1968 89.8592 48.8737C90.3888 49.5385 90.6535 50.6606 90.6535 52.2398C90.6535 55.6239 89.8441 57.3159 88.225 57.3159C86.2636 57.3159 85.2829 55.7307 85.2829 52.5604ZM85.2207 67.6283C85.2207 66.3222 85.8796 65.2654 87.1976 64.458C88.0278 64.3631 89.3039 64.3155 91.0273 64.3155C92.2618 64.3155 93.0871 64.5767 93.5024 65.0992C93.9169 65.6216 94.125 66.3815 94.125 67.3789C94.125 68.2339 93.7256 69.1185 92.9259 70.0328C92.1271 70.9589 90.9334 71.422 89.3456 71.422C87.9137 71.422 86.8655 71.048 86.2013 70.2999C85.5475 69.5638 85.2207 68.6732 85.2207 67.6283ZM95.2302 47.4666C95.51 47.4903 95.6499 47.6566 95.6499 47.9653C95.6499 48.3571 95.4374 48.5886 95.0123 48.6599C94.6493 48.7074 94.2029 48.6123 93.6734 48.3749C93.3935 48.2562 93.0349 48.0899 92.5992 47.8762C92.1635 47.6506 91.857 47.4963 91.6808 47.4131C91.5046 47.3181 91.2602 47.2113 90.9493 47.0925C90.6376 46.9739 90.3684 46.8966 90.1399 46.861C89.9221 46.8254 89.6467 46.7897 89.3146 46.7542C88.993 46.7185 88.6298 46.7007 88.225 46.7007C86.6476 46.7007 85.3089 47.3063 84.2088 48.5174C83.1191 49.7285 82.5743 51.0644 82.5743 52.5248C82.5743 54.8877 83.5135 56.6629 85.3918 57.8502C83.7107 59.287 82.8701 60.5753 82.8701 61.7152C82.8701 63.1518 83.8663 64.0425 85.8589 64.3868C83.8248 65.6454 82.8078 67.1534 82.8078 68.9106C82.8078 70.0505 83.2748 71.0004 84.2088 71.7604C85.1428 72.5322 86.5127 72.9181 88.3184 72.9181C90.4667 72.9181 92.283 72.1048 93.7663 70.478C95.2612 68.8513 96.0086 67.1949 96.0086 65.5088C96.0086 62.7897 94.5607 61.4301 91.6649 61.4301C91.3434 61.4301 90.9183 61.442 90.3888 61.4658C89.8592 61.4895 89.4961 61.5014 89.2995 61.5014C87.7113 61.5014 86.5905 61.3827 85.9367 61.1452C85.2933 60.8959 84.9715 60.5041 84.9715 59.9697C84.9715 59.2929 85.4282 58.7348 86.3414 58.2955C86.9745 58.4143 87.6438 58.4736 88.3496 58.4736C89.7503 58.4736 90.9334 57.9156 91.8987 56.7994C92.8746 55.6833 93.3616 54.1753 93.3616 52.2755C93.3616 50.7675 93.1128 49.6276 92.6151 48.8558L92.693 48.7668C92.8586 48.8974 93.0818 49.0814 93.3616 49.3189C93.653 49.5445 93.8708 49.7048 94.0161 49.7998C94.1719 49.8948 94.3685 49.9897 94.6076 50.0848C94.8565 50.1797 95.1 50.2272 95.3391 50.2272C95.7332 50.2272 96.0653 50.0551 96.3354 49.7107C96.6055 49.3545 96.7401 48.9329 96.7401 48.4462C96.7401 47.9356 96.6099 47.5081 96.3504 47.1638C96.1016 46.8076 95.7279 46.6295 95.2302 46.6295C95.085 46.9382 95.085 47.2172 95.2302 47.4666ZM95.4321 50.9575C95.5153 51.3493 95.557 51.7886 95.557 52.2755C95.557 54.389 94.9654 56.0751 93.7823 57.3337C92.6098 58.5804 91.1725 59.2039 89.4704 59.2039H87.5246C87.2235 59.5957 87.1354 59.946 87.2599 60.2547C87.3948 60.5515 87.6439 60.6999 88.0071 60.6999H93.2217C96.5426 60.6999 98.2031 62.3029 98.2031 65.5088C98.2031 66.3638 97.9799 67.2602 97.5336 68.1982C97.0872 69.1363 96.4647 70.009 95.6659 70.8164C94.8671 71.6357 93.8186 72.3126 92.5212 72.8469C91.2239 73.3812 89.8229 73.6483 88.3184 73.6483C86.2948 73.6483 84.7641 73.1971 83.7263 72.2947C82.6885 71.4042 82.1696 70.2762 82.1696 68.9106C82.1696 67.4027 82.8597 66.0015 84.24 64.7073C82.9012 64.1731 82.2319 63.1756 82.2319 61.7152C82.2319 60.4565 82.9116 59.1801 84.2711 57.8859C82.7144 56.6035 81.9361 54.8165 81.9361 52.5248C81.9361 50.8981 82.5484 49.402 83.7729 48.0365C84.9975 46.6591 86.4815 45.9704 88.225 45.9704C89.5227 45.9704 90.4773 46.0477 91.0893 46.202C91.7118 46.3564 92.4902 46.6532 93.4245 47.0925C93.8912 46.297 94.4934 45.8992 95.2302 45.8992C95.9564 45.8992 96.4966 46.1426 96.849 46.6295C97.2015 47.1163 97.3786 47.7218 97.3786 48.4462C97.3786 49.1467 97.2015 49.7404 96.849 50.2272C96.4966 50.7141 96.0237 50.9575 95.4321 50.9575ZM87.4311 67.6283C87.4311 68.3882 87.6231 69.0532 88.0071 69.6231C88.4015 70.1931 89.0345 70.5374 89.9061 70.6561C91.0999 70.5374 91.9925 70.1159 92.5841 69.3916C93.1854 68.6791 93.4865 68.0083 93.4865 67.3789C93.4865 66.6428 93.3413 66.0669 93.0508 65.6513C92.7603 65.2476 92.2051 65.0458 91.385 65.0458C90.3994 65.0458 89.4288 65.0933 88.4741 65.1882C87.7788 65.8651 87.4311 66.6784 87.4311 67.6283ZM87.4934 52.5604C87.4934 54.8046 87.9189 56.1107 88.7699 56.4788C89.5997 56.1107 90.0151 54.6977 90.0151 52.2398C90.0151 50.2925 89.5794 49.1229 88.7076 48.7311C87.8981 49.1229 87.4934 50.3994 87.4934 52.5604ZM124.667 62.1604C124.086 62.1248 123.52 62.0773 122.97 62.0179C122.431 61.9467 121.937 61.8517 121.491 61.733C121.045 61.6143 120.666 61.4598 120.355 61.2699C120.054 61.068 119.856 60.8187 119.763 60.5218L111.155 36.1923C110.978 36.2042 110.807 36.2874 110.641 36.4417C110.568 37.914 110.174 39.0956 109.458 39.9861L109.816 41.0369L103.247 59.9341C102.832 61.1214 101.555 61.8636 99.4172 62.1604C99.3552 62.3267 99.3242 62.4751 99.3242 62.6057C99.3242 62.7482 99.3552 62.8906 99.4172 63.0332C100.6 62.9857 101.551 62.95 102.266 62.9263C102.992 62.9026 103.491 62.8906 103.761 62.8906C103.999 62.8906 104.539 62.9026 105.38 62.9263C106.231 62.95 107.382 62.9857 108.835 63.0332C108.897 62.8906 108.929 62.7482 108.929 62.6057C108.929 62.4751 108.897 62.3267 108.835 62.1604C107.974 62.0654 107.273 61.9645 106.734 61.8576C106.194 61.7389 105.774 61.6143 105.473 61.4837C105.172 61.353 104.97 61.2105 104.866 61.0562C104.762 60.8899 104.71 60.7059 104.71 60.5041C104.71 60.3734 104.731 60.2428 104.772 60.1121L107.045 53.5935C108.197 53.5697 109.126 53.5519 109.831 53.54C110.548 53.5281 111.04 53.5222 111.31 53.5222C111.902 53.5222 112.426 53.5281 112.882 53.54C113.35 53.54 113.749 53.546 114.081 53.5578L116.339 60.1121C116.39 60.2903 116.417 60.4268 116.417 60.5218C116.417 60.8425 116.271 61.1274 115.98 61.3768C115.7 61.6261 115.352 61.7983 114.938 61.8933L113.256 62.1604C113.194 62.3267 113.163 62.4751 113.163 62.6057C113.163 62.7482 113.194 62.8906 113.256 63.0332C114.138 62.9975 115.031 62.9678 115.934 62.9441C116.847 62.9203 117.781 62.9085 118.736 62.9085C119.691 62.9085 120.656 62.9203 121.631 62.9441C122.617 62.9678 123.629 62.9975 124.667 63.0332C124.739 62.8669 124.776 62.7245 124.776 62.6057C124.776 62.5345 124.765 62.4632 124.745 62.3919C124.724 62.3207 124.698 62.2436 124.667 62.1604ZM111.31 52.1329C109.806 52.1329 108.565 52.1092 107.59 52.0617L110.548 43.3345H110.61L113.583 52.0974C113.023 52.1211 112.265 52.1329 111.31 52.1329ZM110.579 45.2046L108.508 51.3671C109.764 51.4384 111.145 51.4502 112.649 51.4027L110.579 45.2046ZM125.149 61.5014C125.409 62.2139 125.398 62.9678 125.118 63.7634H112.773C112.525 62.9441 112.525 62.1901 112.773 61.5014C113.905 61.4301 114.704 61.2995 115.171 61.1096C115.638 60.9077 115.798 60.5871 115.653 60.1478L113.615 54.2524C111.695 54.1693 109.639 54.1931 107.45 54.3237L105.442 60.219C105.38 60.4209 105.426 60.605 105.582 60.7711C105.748 60.9256 106.013 61.0502 106.376 61.1452C106.739 61.2402 107.164 61.3174 107.652 61.3768C108.14 61.4361 108.69 61.4777 109.302 61.5014C109.561 62.2139 109.552 62.9678 109.271 63.7634C105.868 63.6209 102.437 63.6209 98.9815 63.7634C98.7016 62.9678 98.691 62.2139 98.9505 61.5014C101.088 61.2165 102.297 60.6821 102.578 59.8984L109.147 41.0012C109.105 40.9063 109.022 40.6925 108.897 40.3601C108.784 40.0158 108.716 39.7901 108.695 39.6832C109.505 38.7453 109.951 37.5341 110.034 36.0499C110.947 35.5393 112.022 35.2484 113.256 35.1772L121.99 59.9697C122.186 60.5278 122.498 60.9017 122.923 61.0917C123.349 61.2699 124.091 61.4064 125.149 61.5014ZM132.746 52.8633C133.005 51.7708 133.54 50.7081 134.349 49.6751C135.159 48.642 135.983 48.1256 136.825 48.1256C137.81 48.1256 138.303 48.4877 138.303 49.212C138.303 49.8651 138.033 50.2806 137.493 50.4588C137.348 50.6963 137.348 50.9753 137.493 51.2959C138.054 51.2959 138.511 51.0999 138.863 50.7081C139.226 50.3163 139.409 49.7701 139.409 49.0695C139.409 48.3333 139.211 47.7575 138.817 47.3419C138.433 46.9145 137.93 46.7007 137.306 46.7007C136.497 46.7007 135.683 47.0748 134.863 47.8227C134.054 48.559 133.348 49.3842 132.746 50.2985V47.2351C132.662 47.0451 132.486 46.8907 132.216 46.7719C130.826 47.52 129.218 48.0068 127.391 48.2324C127.329 48.5174 127.329 48.7965 127.391 49.0695C128.792 49.1407 129.793 49.3842 130.395 49.7998C130.479 54.2287 130.468 57.779 130.364 60.4506C130.343 61.3292 129.461 61.8992 127.717 62.1604C127.562 62.481 127.562 62.76 127.717 62.9975C130.437 62.8551 133.399 62.8551 136.606 62.9975C136.752 62.76 136.752 62.481 136.606 62.1604C134.147 61.8992 132.907 61.3292 132.886 60.4506C132.793 58.0402 132.746 55.511 132.746 52.8633ZM135.081 60.415C135.101 60.878 135.802 61.2402 137.182 61.5014C137.525 62.2851 137.504 63.0391 137.12 63.7634C132.72 63.5972 129.394 63.5615 127.142 63.6565C126.757 62.956 126.737 62.2376 127.08 61.5014C128.823 61.2402 129.706 60.878 129.726 60.415C129.851 57.0309 129.86 53.635 129.757 50.2272C129.072 49.9897 128.127 49.8354 126.924 49.7642C126.685 49.0517 126.685 48.2977 126.924 47.5022C128.657 47.3834 130.494 46.8491 132.435 45.8992C133.555 46.0417 134.396 46.4276 134.956 47.0569C135.828 46.3326 136.611 45.9704 137.306 45.9704C138.117 45.9704 138.776 46.2435 139.284 46.7897C139.792 47.336 140.046 48.0959 140.046 49.0695C140.046 49.9957 139.808 50.72 139.331 51.2424C138.853 51.7649 138.241 52.0261 137.493 52.0261C136.798 52.0261 136.217 51.7589 135.75 51.2247C135.324 51.8777 135.06 52.4713 134.956 53.0057C134.956 55.5823 134.998 58.052 135.081 60.415ZM147.815 48.8558H153.932C154.077 48.3927 154.077 47.9653 153.932 47.5734H147.815V43.6728C147.555 43.5422 147.296 43.5422 147.036 43.6728C146.652 44.4921 146.227 45.2105 145.759 45.828C145.292 46.4335 144.898 46.861 144.576 47.1103C144.265 47.3478 143.814 47.6566 143.222 48.0365C143.149 48.2859 143.149 48.559 143.222 48.8558H145.122V58.1886C145.122 61.6677 146.377 63.4072 148.889 63.4072C149.958 63.4072 150.943 63.0926 151.846 62.4632C152.749 61.822 153.424 61.0383 153.87 60.1121C153.776 59.8509 153.605 59.7085 153.356 59.6847C152.381 60.6821 151.437 61.1808 150.523 61.1808C148.717 61.1808 147.815 60.2428 147.815 58.3667V48.8558ZM153.17 58.9188C153.823 59.0139 154.29 59.4235 154.571 60.1478C154.03 61.2758 153.247 62.2198 152.219 62.9797C151.192 63.7515 150.082 64.1374 148.889 64.1374C145.962 64.1374 144.499 62.1545 144.499 58.1886V49.5682H142.584C142.429 48.9389 142.429 48.2859 142.584 47.609C143.217 47.1934 143.699 46.8551 144.031 46.5939C144.364 46.3207 144.779 45.8814 145.277 45.2759C145.775 44.6703 146.216 43.94 146.6 43.0852C147.575 42.622 148.712 42.6458 150.009 43.1564V46.8431H154.539C154.871 47.7218 154.871 48.6302 154.539 49.5682H150.009V58.3667C150.009 59.5066 150.368 60.1775 151.083 60.3793C151.706 60.225 152.401 59.7381 153.17 58.9188Z" fill="#CFD39F"/>
<path d="M78.2665 0.0526924C77.927 0.138165 77.3327 0.507042 76.9119 0.893915C75.4206 2.25247 74.4388 4.54221 74.269 7.05688C74.1361 9.02274 74.6566 11.236 75.7086 13.1614C76.1515 13.9666 76.5095 14.5064 77.0558 15.1812C78.3441 16.7782 79.8611 18.0603 82.2678 19.5943C84.3755 20.9393 85.2872 21.7176 86.0623 22.8287C86.3502 23.2426 86.3207 23.0221 86.0143 22.4733C85.7781 22.0459 85.4939 21.6636 85.1174 21.2542C84.4936 20.5839 83.9141 20.1071 82.0832 18.7845C80.2303 17.444 78.9716 16.3103 77.9122 15.0283C75.7418 12.3966 74.7673 9.21167 75.2509 6.34162C75.5794 4.40726 76.4431 2.72031 77.9307 1.09185C78.488 0.480051 78.5729 0.381084 78.6578 0.223635C78.7612 0.0257015 78.6135 -0.0417767 78.2665 0.0526924Z" fill="#CFD39F"/>
<path d="M98.6973 0.0391998C98.5792 0.142666 98.6751 0.291117 99.2989 0.970392C101.015 2.82828 101.931 4.71766 102.163 6.89494C102.396 9.04073 101.816 11.3755 100.521 13.4988C99.3875 15.3611 97.8151 16.9356 95.1685 18.852C93.3451 20.1701 92.9021 20.5299 92.282 21.1912C91.7911 21.713 91.2632 22.4913 91.123 22.9007C91.0934 22.9861 91.0824 23.0581 91.1008 23.0581C91.1156 23.0581 91.2374 22.9052 91.3666 22.7162C92.0827 21.6906 93.0276 20.8943 95.0393 19.6167C97.7376 17.9028 99.5167 16.3283 100.798 14.5109C102.141 12.6036 102.916 10.4938 103.071 8.32547C103.271 5.5094 102.171 2.44141 100.392 0.848934C99.7493 0.277622 98.8892 -0.131742 98.6973 0.0391998Z" fill="#CFD39F"/>
<path d="M78.381 4.13283C77.8015 5.24846 77.5283 6.49905 77.5246 8.01055C77.5246 9.3781 77.7941 10.6512 78.3441 11.8973C79.1045 13.6157 80.1527 14.9518 82.0795 16.6477C82.9027 17.372 83.9473 18.3301 84.1872 18.5731C84.309 18.699 84.6302 19.0679 84.9033 19.3918C85.3942 19.9721 85.3979 19.9721 85.1875 19.6392C84.7114 18.879 84.1245 18.0962 82.8768 16.5577C82.1571 15.667 81.4336 14.7673 81.2712 14.5559C80.2081 13.1748 79.385 11.7983 78.8571 10.5162C78.6394 9.9899 78.6394 9.89543 78.8535 10.3498C79.5622 11.8388 80.4148 13.0804 82.3232 15.3881C83.8033 17.183 84.6781 18.3211 85.1986 19.1264L85.2835 19.2568L85.1986 19.0769C84.7593 18.1232 83.5265 16.1214 82.3047 14.376C80.0199 11.1145 79.1155 9.47257 78.6357 7.71365C78.2961 6.46756 78.2444 5.17199 78.488 4.13283C78.5249 3.97538 78.5471 3.84943 78.5397 3.84943C78.5323 3.84943 78.4622 3.97538 78.381 4.13283Z" fill="#CFD39F"/>
<path d="M98.808 3.94841C99.0147 4.73115 99.0627 5.70283 98.9409 6.57554C98.7711 7.77665 98.3245 9.04073 97.5715 10.4398C97.158 11.218 96.5084 12.2212 95.2054 14.1286C93.8618 16.0899 93.083 17.318 92.5072 18.3797C92.0162 19.2794 91.9609 19.4233 92.2894 18.9195C92.7434 18.2267 93.3414 17.453 94.8917 15.5456C97.1617 12.752 97.8225 11.7893 98.5349 10.2418C98.6308 10.0304 98.712 9.87745 98.712 9.89995C98.712 10.0214 98.1214 11.3485 97.8151 11.9108C97.1396 13.1569 96.5121 14.0296 94.6148 16.3778C93.1716 18.1592 92.6511 18.843 92.1971 19.5718L91.9461 19.9766L92.4223 19.4053C93.1088 18.5866 93.4816 18.2177 95.15 16.7512C96.704 15.3791 97.5678 14.421 98.2654 13.2873C99.2694 11.6544 99.7566 10.0844 99.8083 8.30297C99.8563 6.67901 99.5795 5.32496 98.963 4.13285C98.808 3.83595 98.7637 3.78197 98.808 3.94841Z" fill="#CFD39F"/>
<path d="M71.9288 6.76002C71.8402 6.92197 71.8144 7.63723 71.8771 8.11857C72.0617 9.50412 73.0103 11.7759 74.0881 13.4088C75.417 15.4152 77.1297 17.1111 78.9642 18.2222C79.1967 18.3662 79.4219 18.5326 79.4625 18.5911C79.5548 18.7306 79.8132 18.7756 80.0162 18.6946L80.1527 18.6406L79.9387 18.4697C78.1632 17.0796 77.4139 16.3868 76.4025 15.1857C75.4465 14.0476 74.4499 12.4821 73.9073 11.2495C73.8187 11.0516 73.7116 10.8042 73.6636 10.7007C73.4975 10.3318 73.2059 9.48162 72.9512 8.62241C72.4308 6.88148 72.1466 6.36415 71.9288 6.76002Z" fill="#CFD39F"/>
<path d="M105.068 6.79599C104.921 7.01641 104.736 7.48426 104.526 8.19053C103.798 10.5927 103.285 11.7848 102.333 13.2739C101.063 15.2577 99.5241 16.8907 97.5161 18.3797L97.1876 18.6226L97.3131 18.6856C97.5013 18.78 97.7855 18.7351 97.8778 18.5956C97.9221 18.5326 98.2137 18.3212 98.5312 18.1233C101.145 16.4813 103.356 13.8317 104.64 10.7997C105.264 9.32865 105.53 8.25801 105.496 7.33131C105.482 6.86347 105.419 6.66553 105.279 6.64754C105.205 6.63854 105.153 6.67453 105.068 6.79599Z" fill="#CFD39F"/>
<path d="M55.647 9.00022C55.396 9.0857 55.2114 9.19816 54.8202 9.52205C53.6168 10.5072 52.646 12.0232 52.2216 13.5842C52.0887 14.0791 51.9927 14.6864 52.0333 14.8078C52.0555 14.8798 52.0628 14.8798 52.1293 14.7988C52.1662 14.7538 52.2991 14.4794 52.4283 14.196C53.2514 12.3381 54.1816 11.2045 55.6913 10.2148C56.4074 9.74248 56.6325 9.15767 56.1601 8.98673C55.9792 8.91925 55.8906 8.92375 55.647 9.00022Z" fill="#CFD39F"/>
<path d="M121.166 8.98224C121.099 9.00473 121.018 9.07671 120.985 9.13519C120.83 9.42759 121.088 9.84595 121.653 10.2148C123.188 11.218 124.148 12.4101 125.008 14.3985C125.2 14.8393 125.244 14.9113 125.292 14.8258C125.337 14.7403 125.303 14.376 125.211 13.9396C125.004 12.9769 124.524 11.9063 123.904 11.0246C123.244 10.0844 122.254 9.18017 121.69 9.00473C121.446 8.92376 121.339 8.91926 121.166 8.98224Z" fill="#CFD39F"/>
<path d="M51.3947 10.8671C51.1105 11.0156 50.9296 11.3575 50.7303 12.1492C50.4461 13.2828 50.4018 14.5334 50.6122 15.5366C50.6971 15.937 50.8374 16.2878 50.9112 16.2878C50.9739 16.2878 50.9887 16.1394 51.0551 15.0867C51.1216 14.0386 51.3357 13.0669 51.7011 12.1852C51.8967 11.7039 51.9484 11.4699 51.9078 11.2405C51.8524 10.9391 51.6051 10.7637 51.3947 10.8671Z" fill="#CFD39F"/>
<path d="M125.672 10.8626C125.517 10.9436 125.436 11.1325 125.436 11.398C125.436 11.6139 125.469 11.7398 125.672 12.2572C126.053 13.2378 126.215 13.9936 126.289 15.0957C126.359 16.1619 126.374 16.2878 126.429 16.2878C126.573 16.2878 126.78 15.4871 126.839 14.6954C126.924 13.5842 126.721 12.1942 126.352 11.3575C126.186 10.9751 125.883 10.7547 125.672 10.8626Z" fill="#CFD39F"/>
<path d="M57.057 11.1191C55.6211 11.263 54.5359 11.7084 53.9195 12.4011C53.8272 12.5046 53.7645 12.6036 53.7755 12.6261C53.7866 12.6486 53.9047 12.5991 54.0413 12.5136C54.9087 11.9873 55.7761 11.7668 56.9832 11.7668C59.0465 11.7668 60.9438 12.5406 62.5938 14.0521C63.0662 14.4884 63.9226 15.5321 64.2696 16.0944C64.4172 16.3373 64.7605 16.9626 65.0336 17.4845C65.7202 18.798 65.9491 19.1444 66.1225 19.1444C66.2407 19.1444 66.2776 18.978 66.2554 18.5416C66.2148 17.7409 65.8679 16.8142 65.2108 15.7345C64.8196 15.0957 63.8857 13.9441 63.38 13.4853C62.0253 12.2482 60.5046 11.4834 58.8657 11.209C58.4486 11.1415 57.3855 11.0876 57.057 11.1191Z" fill="#CFD39F"/>
<path d="M119.014 11.1415C117.733 11.254 116.297 11.7713 115.175 12.5226C114.787 12.779 114.034 13.3998 113.717 13.7237C112.761 14.6909 111.904 15.946 111.48 17.0076C111.199 17.7094 111.114 18.0423 111.089 18.5416C111.066 18.9915 111.103 19.1444 111.233 19.1444C111.354 19.1444 111.646 18.7395 111.963 18.1367C112.694 16.7467 113.078 16.0674 113.355 15.6716C115.13 13.1569 117.622 11.7668 120.353 11.7668C121.549 11.7668 122.306 11.9513 123.21 12.4641C123.399 12.5721 123.561 12.6441 123.568 12.6261C123.591 12.5856 123.38 12.3337 123.185 12.1582C122.989 11.9873 122.428 11.6589 122.096 11.5239C121.664 11.3485 120.985 11.1955 120.394 11.1415C119.829 11.0876 119.597 11.0876 119.014 11.1415Z" fill="#CFD39F"/>
<path d="M83.6372 11.4384C83.4379 13.3413 83.4084 14.421 83.5412 15.1632C83.7221 16.1664 83.9768 16.7557 84.8147 18.1097C85.2392 18.798 85.409 19.1039 85.6194 19.5718C85.6969 19.7427 85.7523 19.8462 85.7412 19.7967C85.7301 19.7472 85.6858 19.5448 85.6452 19.3468C85.5345 18.8385 85.2872 17.8398 84.9993 16.7602C84.6708 15.5276 84.3164 14.1421 84.3164 14.0836C84.3164 14.0611 84.4382 14.3535 84.5895 14.7359C85.0473 15.91 85.4459 17.228 85.719 18.4651C85.8003 18.825 85.8815 19.1939 85.9036 19.2794C85.959 19.5178 85.9147 17.381 85.8519 16.8052C85.6711 15.2217 85.2613 14.0656 84.3902 12.6665C84.1281 12.2437 83.9584 11.9198 83.7922 11.5284L83.6631 11.2225L83.6372 11.4384Z" fill="#CFD39F"/>
<path d="M93.5628 11.5059C93.4115 11.8658 93.2675 12.1402 92.8984 12.7565C92.4665 13.4808 92.2598 13.8901 92.0494 14.439C91.5954 15.6221 91.4515 16.5308 91.4219 18.3797L91.4035 19.4368L91.5474 18.7845C91.8759 17.2775 92.2524 16.0269 92.843 14.475C92.9316 14.25 93.0091 14.0701 93.0165 14.0791C93.035 14.1016 92.7618 15.1902 92.3447 16.7602C92.0568 17.8353 91.6729 19.4053 91.6102 19.7517C91.5954 19.8282 91.6582 19.7247 91.7541 19.5043C91.8501 19.2929 92.0605 18.8925 92.2266 18.6136C92.3927 18.3392 92.6806 17.8533 92.8689 17.5384C93.8397 15.901 94.0279 14.8348 93.7843 12.2887C93.7326 11.7444 93.6846 11.2945 93.6772 11.2855C93.6699 11.2765 93.6182 11.3755 93.5628 11.5059Z" fill="#CFD39F"/>
<path d="M71.5191 12.9005C71.3493 12.9995 71.3936 13.3503 71.6372 13.8677C71.7664 14.1421 72.5231 15.0553 73.169 15.7211C74.8928 17.498 76.5539 18.6766 78.0968 19.2164C78.68 19.4188 79.038 19.4188 79.038 19.2119C79.038 19.1894 78.979 19.1669 78.9088 19.1624C78.6874 19.1579 77.4176 18.3617 76.6018 17.7139C75.4576 16.8097 74.6418 15.9775 73.1506 14.1961C72.3607 13.2514 72.1207 13.022 71.8181 12.9095C71.6187 12.8375 71.6261 12.8375 71.5191 12.9005Z" fill="#CFD39F"/>
<path d="M105.463 12.9319C105.168 13.0714 104.954 13.2873 104.157 14.2365C102.831 15.82 102.182 16.4993 101.167 17.3675C100.351 18.0647 98.7785 19.1084 98.4499 19.1714C98.2912 19.2029 98.2691 19.2523 98.3761 19.3243C98.6456 19.4998 99.6496 19.1489 100.768 18.4921C102.008 17.7633 103.001 16.9446 104.36 15.5231C105.312 14.5244 105.766 13.8901 105.891 13.3773C105.958 13.1029 105.936 12.9634 105.814 12.8959C105.696 12.833 105.666 12.833 105.463 12.9319Z" fill="#CFD39F"/>
<path d="M56.0419 13.8181C54.104 14.115 52.3766 15.3476 51.4021 17.1335C50.4535 18.8655 50.4682 20.8223 51.4427 22.6037C52.0074 23.6339 52.8306 24.4616 53.9933 25.1499C56.6731 26.7469 60.117 26.8863 64.037 25.5548C65.4323 25.0779 66.6873 24.5381 69.2564 23.2965C73.0029 21.4926 74.8153 20.7953 76.8602 20.386C78.1078 20.1341 79.7024 20.0576 80.7175 20.2015C82.5926 20.4669 83.9436 21.3936 84.56 22.8287C84.7003 23.1616 84.715 23.0491 84.5822 22.6577C84.3053 21.8525 83.6852 21.1192 82.851 20.6064C82.1792 20.197 81.2527 19.8866 80.3484 19.7697C79.8205 19.7022 78.2555 19.7022 77.6907 19.7697C75.2472 20.0711 73.1764 20.7728 68.8688 22.7657C65.388 24.3807 63.4575 25.0689 61.4606 25.4153C59.567 25.7482 57.7583 25.6672 56.208 25.1904C55.7466 25.0464 55.049 24.745 54.5987 24.5021C52.7014 23.454 51.6051 21.848 51.5128 19.9766C51.4612 18.9689 51.834 17.9118 52.5611 16.9806C53.2588 16.0899 54.1594 15.4376 55.1376 15.1182C57.1087 14.4749 59.0945 15.0372 60.3828 16.6027C60.8848 17.21 61.1837 17.8173 61.3646 18.5911C61.4717 19.0544 61.4827 19.9631 61.3831 20.3995C61.1542 21.4206 60.4898 22.2888 59.5928 22.7477C58.9838 23.0581 58.4006 23.1706 57.6033 23.1346C56.2523 23.0761 55.2077 22.6172 54.5064 21.776C54.1742 21.3756 53.9822 21.0068 53.8383 20.4984C53.7571 20.215 53.7386 20.0531 53.7239 19.5358C53.7165 19.1984 53.6943 18.9195 53.6759 18.9195C53.6131 18.9195 53.4913 19.1264 53.4175 19.3648C53.2957 19.7562 53.2809 20.377 53.3806 20.8538C53.7275 22.5498 54.9493 23.7104 56.854 24.1467C57.3671 24.2682 58.4781 24.2907 58.9026 24.1917C60.3385 23.8543 61.5086 22.8557 62.0364 21.5151C62.2689 20.9258 62.3612 20.458 62.3797 19.7517C62.4129 18.6181 62.1951 17.6959 61.6673 16.7287C61.4606 16.3463 60.929 15.6535 60.619 15.3566C59.8992 14.6684 59.0133 14.1735 58.0536 13.9261C57.7657 13.8496 57.5184 13.8271 56.9278 13.8136C56.5107 13.8046 56.112 13.8091 56.0419 13.8181Z" fill="#CFD39F"/>
<path d="M119.696 13.8406C119.091 13.9396 118.264 14.25 117.74 14.5649C117.231 14.8753 116.581 15.4556 116.205 15.9324C115.677 16.6027 115.256 17.4889 115.079 18.3122C114.946 18.9195 114.916 19.8866 115.009 20.4444C115.322 22.3248 116.585 23.7329 118.334 24.1647C118.84 24.2907 119.922 24.2817 120.508 24.1467C122.254 23.7464 123.469 22.6757 123.89 21.1777C124 20.7818 124.011 20.6919 124.011 20.2015C124.011 19.6302 123.963 19.3648 123.801 19.0679C123.657 18.807 123.628 18.87 123.628 19.4278C123.628 21.0562 122.852 22.2169 121.361 22.8107C120.745 23.0581 120.35 23.1211 119.512 23.1211C118.733 23.1211 118.438 23.0671 117.914 22.8332C116.33 22.1134 115.559 20.3635 116.005 18.5011C116.301 17.2595 117.09 16.1979 118.235 15.5006C119.711 14.6009 121.682 14.6504 123.273 15.622C124.484 16.3643 125.469 17.6869 125.754 18.9644C125.846 19.3783 125.846 20.2285 125.754 20.6739C125.658 21.1372 125.447 21.7175 125.233 22.1179C124.964 22.6127 124.314 23.382 123.831 23.7734C122.125 25.1544 119.626 25.8157 117.054 25.5773C114.662 25.3478 112.735 24.718 108.42 22.7432C106.12 21.6905 105.268 21.3217 104.138 20.9033C101.68 19.9946 99.4724 19.5987 97.5936 19.7292C96.0138 19.8372 94.8547 20.242 93.9467 20.9933C93.4189 21.4296 92.9095 22.1584 92.736 22.7252C92.6253 23.0851 92.6585 23.1211 92.8024 22.7927C93.4225 21.3711 94.7735 20.4624 96.6597 20.197C97.3094 20.1071 98.9519 20.1296 99.6902 20.242C101.137 20.4624 102.547 20.8718 104.286 21.5736C105.293 21.9784 106.046 22.3203 108.18 23.3415C109.033 23.7464 109.955 24.1827 110.229 24.3087C112.864 25.5143 114.732 26.1036 116.762 26.369C117.541 26.4725 119.098 26.4725 119.807 26.369C122.893 25.9146 125.314 24.2457 126.215 21.947C127.005 19.9271 126.691 17.9478 125.296 16.1664C124.432 15.0597 123.181 14.25 121.834 13.9261C121.372 13.8136 120.15 13.7642 119.696 13.8406Z" fill="#CFD39F"/>
<path d="M49.5639 15.3702C49.3166 15.4556 49.2132 15.6896 49.2871 15.982C49.3609 16.2564 49.6377 16.8727 49.8223 17.1696C50.1139 17.6239 50.5015 17.9478 50.5827 17.7904C50.6196 17.7184 50.6048 17.6374 50.4682 17.0976C50.4129 16.8727 50.328 16.4903 50.2874 16.2429C50.1508 15.4826 50.1471 15.4736 50.0105 15.3927C49.874 15.3162 49.7374 15.3072 49.5639 15.3702Z" fill="#CFD39F"/>
<path d="M127.333 15.3837C127.182 15.4646 127.178 15.4781 127.112 15.919C127.082 16.1259 127.009 16.5083 126.946 16.7647C126.717 17.7274 126.702 17.8398 126.835 17.8398C127.075 17.8398 127.607 17.1336 127.898 16.4228C128.138 15.8515 128.138 15.6041 127.909 15.4376C127.758 15.3297 127.474 15.3027 127.333 15.3837Z" fill="#CFD39F"/>
<path d="M86.9187 16.0494C86.9335 16.1079 86.9519 16.2788 86.963 16.4318C86.9851 16.7557 86.9335 16.9716 86.6751 17.6464C86.3761 18.4246 86.317 18.7575 86.306 19.6932C86.2949 20.6379 86.2248 21.0473 86.0107 21.4566L85.8999 21.6726L86.0734 21.5196C86.3982 21.2362 86.7711 20.6739 86.9999 20.1116C87.2177 19.5853 87.3801 18.897 87.4761 18.0873L87.5019 17.8623L87.5351 18.1322C87.5794 18.4831 87.5425 19.1039 87.4576 19.5178C87.2989 20.26 87.0147 20.8628 86.5791 21.3802L86.306 21.7086L86.4831 21.6141C87.3616 21.1552 88.0002 20.332 88.2143 19.3693C88.3029 18.9735 88.3029 18.1907 88.2143 17.7993C88.0445 17.0481 87.6902 16.4678 87.1623 16.0854C86.9335 15.9235 86.8818 15.9145 86.9187 16.0494Z" fill="#CFD39F"/>
<path d="M90.2961 15.9864C90.2961 16.0089 90.2518 16.0494 90.1965 16.0809C89.8532 16.2698 89.4139 16.8681 89.2478 17.372C88.7311 18.9419 89.2589 20.5929 90.5398 21.4251C91.0344 21.7445 91.0491 21.7355 90.7243 21.3352C90.37 20.8988 90.1263 20.413 89.9639 19.8282C89.8237 19.3108 89.7535 18.6136 89.8015 18.1772L89.8384 17.8623L89.8864 18.2447C90.0414 19.5133 90.3884 20.4579 90.9606 21.1687C91.134 21.3846 91.3149 21.5871 91.3629 21.6186L91.4515 21.6725L91.3777 21.5466C91.1303 21.1147 91.075 20.8268 91.0344 19.6617C90.9975 18.6091 90.9569 18.3886 90.6505 17.6059C90.5398 17.3225 90.429 16.9941 90.4032 16.8816C90.3626 16.6747 90.3737 16.2563 90.4253 16.0494C90.4475 15.9684 90.4401 15.9504 90.3737 15.9504C90.3331 15.9504 90.2961 15.9684 90.2961 15.9864Z" fill="#CFD39F"/>
<path d="M68.7396 16.0494C68.7396 16.0629 68.8097 16.1304 68.8983 16.1979C69.1493 16.4048 69.4631 16.7917 69.8211 17.345C70.5261 18.4336 70.9691 18.8925 71.6815 19.2749C72.2758 19.5898 72.8294 19.7202 74.0918 19.8417C74.5089 19.8822 74.9962 19.9452 75.177 19.9811C75.3542 20.0171 75.5092 20.0441 75.5129 20.0351C75.5203 20.0261 75.4059 19.9631 75.2619 19.8912C73.7301 19.1354 72.5489 18.4831 71.8328 17.9928C71.3714 17.6779 70.9838 17.3855 71.0023 17.363C71.0207 17.336 74.1583 18.9465 75.0294 19.4323C75.1918 19.5223 75.3247 19.5898 75.3321 19.5808C75.3394 19.5763 75.1807 19.4188 74.9851 19.2344C73.4459 17.8039 73.1137 17.5249 72.4013 17.0976C71.711 16.6837 70.862 16.3418 70.0906 16.1754C69.703 16.0899 68.7396 15.9999 68.7396 16.0494Z" fill="#CFD39F"/>
<path d="M107.663 16.0944C106.958 16.1889 105.884 16.5667 105.157 16.9716C104.323 17.4395 103.61 18.0198 102.086 19.4953L101.979 19.5942L102.108 19.5313C102.178 19.4953 102.687 19.2299 103.234 18.942C104.651 18.1952 106.327 17.3405 106.342 17.363C106.36 17.3855 105.884 17.7409 105.397 18.0648C104.659 18.5551 103.78 19.0454 102.521 19.6662C102.141 19.8552 101.816 20.0306 101.794 20.0531C101.768 20.0891 101.772 20.0936 101.802 20.0711C101.886 20.0126 102.495 19.9136 103.215 19.8417C104.216 19.7427 104.548 19.6932 104.935 19.5718C105.995 19.2434 106.615 18.717 107.475 17.417C107.91 16.7602 108.239 16.3463 108.449 16.1979C108.512 16.1484 108.568 16.0944 108.568 16.0764C108.568 16.0314 108.043 16.0404 107.663 16.0944Z" fill="#CFD39F"/>
<path d="M91.9018 19.5043C91.8686 19.5762 91.8538 19.6392 91.8612 19.6392C91.8723 19.6392 91.9055 19.5762 91.9387 19.5043C91.9719 19.4278 91.9867 19.3693 91.9793 19.3693C91.9682 19.3693 91.935 19.4278 91.9018 19.5043Z" fill="#CFD39F"/>
<path d="M69.0349 19.4863C68.5476 19.5988 67.9644 19.8552 67.5658 20.1251L67.3997 20.242L67.5879 20.3185C67.7873 20.3995 67.994 20.5839 68.4997 21.1282C68.8356 21.4836 69.1419 21.6861 69.5074 21.776C69.9983 21.9065 70.3711 21.839 71.2164 21.4611C71.5117 21.3307 71.8549 21.1957 71.9731 21.1642C72.0912 21.1327 72.213 21.0968 72.2351 21.0833C72.261 21.0653 71.9878 21.0068 71.6261 20.9483C70.3785 20.7504 69.105 20.4625 69.0533 20.3635C69.0312 20.314 69.7694 20.35 70.4191 20.431C70.8879 20.485 71.5043 20.5929 71.9694 20.7009C72.0395 20.7144 71.9694 20.6514 71.7664 20.512C71.5929 20.395 71.3529 20.2285 71.2311 20.1476C70.5003 19.6437 70.1385 19.4953 69.5701 19.4773C69.3265 19.4728 69.0866 19.4773 69.0349 19.4863Z" fill="#CFD39F"/>
<path d="M85.4235 19.5493C85.4454 19.5987 85.4709 19.6392 85.4819 19.6392C85.4892 19.6392 85.4819 19.5987 85.46 19.5493C85.4381 19.4998 85.4126 19.4593 85.4016 19.4593C85.3943 19.4593 85.4016 19.4998 85.4235 19.5493Z" fill="#CFD39F"/>
<path d="M107.294 19.5268C106.969 19.6122 106.652 19.7787 106.113 20.1476C105.847 20.323 105.555 20.5209 105.46 20.5839C105.364 20.6424 105.29 20.7009 105.297 20.7054C105.301 20.7144 105.485 20.6784 105.707 20.6289C106.504 20.449 108.342 20.26 108.291 20.359C108.243 20.458 107.098 20.7234 105.862 20.9258C105.441 20.9933 105.109 21.0653 105.124 21.0788C105.142 21.0967 105.253 21.1372 105.371 21.1642C105.489 21.1957 105.84 21.3352 106.142 21.4701C106.977 21.839 107.342 21.9065 107.837 21.776C108.209 21.6816 108.512 21.4836 108.863 21.1057C109.361 20.5659 109.538 20.4085 109.752 20.3185L109.952 20.2375L109.619 20.0351C108.789 19.5268 107.966 19.3468 107.294 19.5268Z" fill="#CFD39F"/>
<path d="M75.4243 19.6528C75.4317 19.6573 75.4723 19.6932 75.5129 19.7292C75.583 19.7922 75.583 19.7922 75.5351 19.7157C75.5092 19.6752 75.4686 19.6393 75.4465 19.6393C75.4243 19.6393 75.417 19.6438 75.4243 19.6528Z" fill="#CFD39F"/>
<path d="M101.809 19.7157C101.761 19.7922 101.761 19.7922 101.831 19.7292C101.872 19.6932 101.912 19.6573 101.92 19.6528C101.927 19.6438 101.92 19.6393 101.898 19.6393C101.875 19.6393 101.835 19.6752 101.809 19.7157Z" fill="#CFD39F"/>
<path d="M105.135 20.7635C105.105 20.786 105.098 20.8085 105.116 20.8085C105.138 20.8085 105.179 20.786 105.209 20.7635C105.238 20.7411 105.249 20.7186 105.227 20.7186C105.209 20.7186 105.164 20.7411 105.135 20.7635Z" fill="#CFD39F"/>
<path d="M86.162 21.7535C86.1325 21.776 86.1251 21.7985 86.1435 21.7985C86.1657 21.7985 86.2063 21.776 86.2358 21.7535C86.2654 21.731 86.2764 21.7085 86.2543 21.7085C86.2358 21.7085 86.1915 21.731 86.162 21.7535Z" fill="#CFD39F"/>
<path d="M77.8014 22.01C77.1038 22.1224 76.4173 22.3339 75.7418 22.6443C75.4059 22.8017 75.2693 22.8377 74.8928 22.8782C73.4606 23.0356 72.0321 23.4045 70.5815 24.0028C69.4815 24.4527 68.5661 24.9295 66.8017 25.9597C65.9601 26.4545 65.3991 26.7694 64.79 27.0933C64.1884 27.4172 63.5313 27.7366 63.0515 27.939C62.531 28.1594 61.7669 28.4204 61.7116 28.3934C61.6894 28.3844 61.7005 28.3709 61.7374 28.3709C61.8518 28.3619 62.8263 27.9165 63.5166 27.5566C64.3323 27.1248 64.7088 26.9089 66.5802 25.7707C68.6879 24.4931 69.4594 24.0838 70.7218 23.58C71.818 23.1436 73.4016 22.7207 74.3059 22.6263C74.472 22.6128 74.616 22.5858 74.6233 22.5678C74.6418 22.5318 74.0697 22.5498 73.372 22.6128C71.6261 22.7612 69.9208 23.2246 68.2597 24.0028C67.3185 24.4482 66.7685 24.7406 64.9377 25.7797C62.6602 27.0708 61.6857 27.5341 60.4418 27.912C59.4858 28.2044 58.8251 28.3169 57.8506 28.3529C56.8134 28.3889 55.8758 28.2584 55.0305 27.9615C54.8903 27.912 54.7684 27.8805 54.7611 27.8895C54.7426 27.912 55.3443 28.2944 55.7835 28.5373C57.9355 29.7429 60.678 29.9903 63.0367 29.1896C64.5944 28.6633 65.7091 28.0245 68.6289 25.9957C71.1019 24.2727 72.6301 23.508 74.5458 23.0311C74.7894 22.9727 75.022 22.9232 75.0663 22.9232C75.1106 22.9232 74.9703 23.0356 74.7562 23.1751C73.575 23.9398 72.7741 24.6101 71.268 26.0946C69.6329 27.7006 69.1604 28.1459 68.5181 28.6678C67.4366 29.545 66.8534 29.8914 65.0669 30.7056C64.0444 31.1734 63.8155 31.2859 63.834 31.3084C63.8414 31.3174 63.9558 31.3084 64.0887 31.2904C64.2216 31.2679 64.7937 31.2094 65.3622 31.1599C67.2594 30.9845 68.149 30.7731 69.2822 30.2288C70.7513 29.5225 71.8328 28.6408 73.9626 26.4095C75.6901 24.5966 76.3656 23.9848 77.185 23.4675C77.5541 23.2381 78.2222 22.9007 78.2481 22.9322C78.2555 22.9412 78.1521 23.0266 78.0229 23.1166C77.5947 23.418 77.0706 23.9353 76.5834 24.5471C76.0629 25.1994 75.6052 25.9147 74.83 27.2867C74.5606 27.7681 74.0844 28.6003 73.7781 29.1311C73.1579 30.1973 72.6596 31.1015 72.5637 31.3219C72.5083 31.4614 72.5231 31.4524 72.8405 31.1734C73.0251 31.0115 73.5123 30.6246 73.922 30.3142C75.93 28.7937 76.3434 28.3754 77.7239 26.477C78.0894 25.9687 78.5138 25.3929 78.6652 25.1949C79.8464 23.6474 81.0645 22.8917 82.4154 22.8737L82.7846 22.8692L82.4893 22.8017C82.0795 22.7117 81.0977 22.7522 80.6326 22.8737C79.6286 23.1346 78.8018 23.6429 77.9306 24.5336C77.4988 24.9745 77.0706 25.5143 76.2327 26.6794C75.4133 27.8176 75.4354 27.7906 75.5351 27.6016C75.6606 27.3722 76.4431 26.0901 76.6166 25.8247C77.7424 24.1378 78.6135 23.319 79.8353 22.7882C80.1158 22.6668 80.2007 22.6488 80.4037 22.6668C80.6141 22.6847 80.6289 22.6847 80.5145 22.6398L80.3853 22.5948L80.5883 22.5318C80.8171 22.4643 81.692 22.3878 81.9282 22.4103C82.0131 22.4238 82.157 22.4373 82.2456 22.4508C82.4966 22.4868 82.4081 22.4373 82.0352 22.3384C81.2269 22.1224 80.3521 22.1269 79.5732 22.3564C79.3702 22.4148 79.0454 22.4733 78.8534 22.4868C77.9565 22.5543 76.9525 22.9142 75.9374 23.5305C74.867 24.1828 74.2911 24.6686 71.6925 27.0888C70.862 27.8625 69.5516 28.9647 69.5516 28.8882C69.5516 28.8747 69.7399 28.7038 69.9688 28.4968C70.4412 28.074 70.9838 27.5431 72.0617 26.45C73.0103 25.4873 73.5603 24.961 74.0549 24.5381C75.6052 23.2021 76.8897 22.5003 78.2961 22.2214C78.6615 22.1494 79.54 22.1224 79.8685 22.1719C80.2044 22.2214 79.8648 22.1224 79.4588 22.046C79.1155 21.983 78.1004 21.9605 77.8014 22.01Z" fill="#CFD39F"/>
<path d="M97.8446 22.0504C97.4718 22.1179 97.1544 22.2214 97.4755 22.1719C97.7929 22.1179 98.6419 22.1494 99.0516 22.2214C100.96 22.5768 102.691 23.7734 105.485 26.6614C106.032 27.2237 107.165 28.3259 107.516 28.6228C107.693 28.7802 107.826 28.9062 107.815 28.9062C107.737 28.9062 106.32 27.7276 105.707 27.1518C105.585 27.0393 105.194 26.6704 104.839 26.3375C103.182 24.781 102.407 24.1423 101.462 23.5664C100.428 22.9322 99.3912 22.5543 98.4906 22.4913C98.2986 22.4733 98.0476 22.4373 97.9295 22.4013C97.1617 22.1674 96.3165 22.1224 95.6078 22.2664C94.995 22.3968 94.995 22.4193 95.6115 22.4193C96.1061 22.4193 96.8775 22.5183 96.9329 22.5858C96.9403 22.5948 96.8923 22.6218 96.8259 22.6488C96.7225 22.6847 96.741 22.6847 96.9255 22.6667C97.1101 22.6443 97.2097 22.6667 97.4607 22.7657C98.4352 23.1571 99.4392 24.0073 100.229 25.1094C100.679 25.7347 100.912 26.1036 101.624 27.2867C102.008 27.93 101.982 27.8985 101.089 26.6569C100.746 26.1756 100.318 25.5953 100.141 25.3704C99.0701 23.9983 97.9738 23.2021 96.7114 22.8737C96.2426 22.7522 95.3641 22.7117 94.9286 22.7927L94.5964 22.8557L95.0578 22.8827C95.3125 22.9007 95.6078 22.9367 95.7148 22.9636C96.0692 23.0491 96.5822 23.283 96.9403 23.517C97.7966 24.0703 98.2211 24.5381 99.5684 26.4095C100.299 27.4217 101.052 28.3349 101.517 28.7757C101.875 29.1131 102.425 29.5675 103.012 30.0083C103.876 30.6561 104.038 30.7821 104.433 31.115C104.699 31.3444 104.825 31.4299 104.799 31.3669C104.695 31.1285 104.075 30.0083 103.477 28.9737C103.116 28.3574 102.662 27.5566 102.462 27.1968C101.277 25.0735 100.447 23.9803 99.3875 23.1661C99.0258 22.8827 99.0664 22.8872 99.6385 23.1751C100.672 23.7014 101.425 24.3537 103.304 26.333C105.028 28.1549 106.069 29.0681 107.198 29.7564C108.501 30.5526 109.749 30.953 111.447 31.1105C112.595 31.2139 113.351 31.2949 113.44 31.3219C113.503 31.3399 113.521 31.3309 113.495 31.3039C113.455 31.2544 112.801 30.9395 112 30.5796C110 29.6844 109.025 28.9827 106.929 26.9313C106.589 26.594 106.113 26.1306 105.877 25.8967C104.544 24.5876 103.322 23.5934 102.385 23.0491C102.119 22.8962 102.182 22.8917 102.724 23.0131C103.584 23.2156 104.596 23.5799 105.456 23.9983C106.497 24.5066 107.22 24.9565 109.077 26.2476C111.613 28.011 112.927 28.7487 114.4 29.2256C116.511 29.9094 118.781 29.7834 120.915 28.8567C121.324 28.6813 122.616 27.93 122.587 27.8895C122.576 27.8805 122.446 27.9165 122.295 27.966C120.091 28.7083 117.629 28.4248 114.861 27.1068C114.318 26.8459 113.325 26.3105 111.974 25.5413C108.826 23.7419 107.172 23.0761 105.042 22.7432C104.345 22.6353 102.429 22.4778 102.569 22.5408C102.591 22.5498 102.879 22.5993 103.212 22.6533C105.146 22.9502 106.932 23.5799 108.863 24.6461C109.136 24.7945 110.044 25.3344 110.875 25.8382C113.351 27.3452 114.056 27.7276 115.212 28.2134C115.525 28.3484 115.765 28.4563 115.739 28.4563C115.644 28.4563 114.529 28.047 114.012 27.8131C113.093 27.4037 112.421 27.0438 109.963 25.6313C108.328 24.6866 107.357 24.2097 106.205 23.7779C104.972 23.319 103.595 22.9951 102.274 22.8512C102.093 22.8332 101.879 22.7747 101.72 22.6982C101.019 22.3608 100.284 22.1269 99.5979 22.0235C99.1771 21.9605 98.2506 21.974 97.8446 22.0504Z" fill="#CFD39F"/>
<path d="M82.5077 22.4823C82.5188 22.4958 82.5853 22.5273 82.6554 22.5588C82.7255 22.5857 82.7661 22.5902 82.7477 22.5678C82.7255 22.5453 82.6628 22.5093 82.6 22.4913C82.541 22.4733 82.4967 22.4688 82.5077 22.4823Z" fill="#CFD39F"/>
<path d="M94.7551 22.5048C94.7809 22.5183 94.8141 22.5138 94.8252 22.5003C94.84 22.4868 94.8178 22.4733 94.7772 22.4778C94.7366 22.4778 94.7256 22.4913 94.7551 22.5048Z" fill="#CFD39F"/>
<path d="M75.1364 22.55C75.1918 22.5587 75.273 22.5587 75.321 22.55C75.3653 22.5412 75.321 22.5325 75.2176 22.5325C75.118 22.5325 75.0774 22.5412 75.1364 22.55Z" fill="#CFD39F"/>
<path d="M94.5964 22.5633C94.5853 22.5903 94.6001 22.5947 94.6296 22.5813C94.696 22.5498 94.7071 22.5183 94.6554 22.5183C94.6333 22.5183 94.6074 22.5363 94.5964 22.5633Z" fill="#CFD39F"/>
<path d="M102.045 22.55C102.101 22.5587 102.182 22.5587 102.23 22.55C102.274 22.5412 102.23 22.5325 102.126 22.5325C102.027 22.5325 101.986 22.5412 102.045 22.55Z" fill="#CFD39F"/>
</svg>
